<?xml version="1.0" encoding="utf-8"?>
<!-- Generator: Adobe Illustrator 27.9.1, SVG Export Plug-In . SVG Version: 6.00 Build 0)  -->
<svg version="1.1" id="Layer_1" xmlns="http://www.w3.org/2000/svg" xmlns:xlink="http://www.w3.org/1999/xlink" x="0px" y="0px"
	 viewBox="0 0 86.36 99.61" style="enable-background:new 0 0 86.36 99.61;" xml:space="preserve">
<style type="text/css">
	.st0{fill:#010101;}
	.st1{fill:#705A4A;}
	.st2{enable-background:new    ;}
	.st3{fill:none;stroke:#000000;stroke-width:0.8038;stroke-miterlimit:10;}
</style>
<g>
	<path class="st0" d="M43.17,31.98c0-0.01,0-0.03,0-0.04c-0.01-0.46,0.02-0.88,0.06-1.26C43.22,31.07,43.21,31.52,43.17,31.98z"/>
	<path class="st0" d="M44.8,20.1c-0.06-0.17-0.1-0.34-0.13-0.51c1.23-0.49,2.09-1.33,2.1-1.35c0.1-0.1,0.27-0.1,0.37,0
		s0.1,0.27,0,0.37C47.09,18.67,46.16,19.59,44.8,20.1z"/>
	<path class="st0" d="M56.65,51.46c-0.16,2.64-0.62,6.1-0.63,6.14h-6.8l-6-0.13l0.03-0.18c0.04-0.23,0.75-3.24,1.65-6.25l-0.46,0.18
		l-0.12,0.26c-0.02,0.18-0.68,3.52-1.57,6c-1.59-1.2-2.83-4.11-3.23-6.77c0-0.13,0.01-0.25,0.01-0.38c0.03-1.21,0.07-2.31,0.12-3.31
		c0.24-0.73,0.65-1.26,1.25-1.47c0.72-0.39,2.54-0.34,3.64-0.42c0.05-0.01,0.11-0.01,0.16-0.02c2.24-0.37,3.21,1.07,3.11,3.42
		c0.07-2.57,0.14-4.12,0.28-5.45c0.07-0.74-0.36-1.42-1.03-1.73c-0.2-0.09-0.38-0.25-0.53-0.45c-0.29-0.39-0.72-0.64-1.19-0.74
		c-1.27-0.28-1.78-3.48-2-5.9c-0.04-0.41-0.07-0.8-0.09-1.15c-0.01-0.1-0.01-0.19-0.02-0.28c1.35-1.84,1.27-4.44,1.27-4.47
		c-0.01-0.15,0.11-0.27,0.25-0.28s0.27,0.11,0.27,0.25c0,0.04,0.04,1-0.24,2.2c-0.12,0.52-0.27,1-0.47,1.44
		c0.15,0.01,0.3,0.01,0.45,0.01c2.04-0.35,4.33-1.44,5.27-1.92c0.05-0.02,0.09-0.04,0.13-0.06c0.09-0.6,0.46-3,0.92-5.28
		c0.3-1.47,0-2.58-0.32-3.75c-0.23-0.85-0.47-1.73-0.45-2.72c0.03-1.7-1.56-3.84-3-4.69c0.05-0.06,0.1-0.13,0.16-0.19
		c0.06-0.07,0.13-0.14,0.2-0.21c1.58,0.97,3.21,3.21,3.17,5.1c-0.02,0.92,0.2,1.73,0.43,2.57c0.32,1.18,0.65,2.41,0.33,4
		c-0.39,1.94-0.72,3.98-0.86,4.89l-0.1,1.43l-0.11,1.52c0.32,0.75,4.56,11.2,5.35,12.88c0.61,1.31,1.22,1.69,1.54,2.57
		C57.91,49.47,56.74,49.81,56.65,51.46z"/>
	<path class="st0" d="M60.23,52.01c-0.03,0.07-0.05,0.14-0.07,0.22c-0.32,1.43-0.25,3.55-0.34,5.36h-2.97
		c0.12-0.97,0.46-3.69,0.59-5.86c0.03-0.5,0.2-0.82,0.4-1.19c0.32-0.59,0.75-1.4,0.31-2.61c-0.21-0.57-0.5-0.98-0.79-1.37
		c-0.26-0.35-0.53-0.72-0.79-1.29c-0.55-1.19-2.9-6.92-4.29-10.33c-0.43-1.05-0.77-1.87-0.94-2.28L51.53,30
		c0.16-1.01,0.47-2.94,0.84-4.8c0.37-1.83-0.01-3.24-0.34-4.49c0-0.01-0.01-0.02-0.01-0.04c-0.07-0.25-0.13-0.49-0.18-0.73
		c-0.03-0.11-0.06-0.21-0.1-0.32c-0.19-0.58-0.22-1.08-0.27-1.84c-0.02-0.28-0.04-0.59-0.07-0.94c0-0.03-0.01-0.06-0.01-0.08
		c-0.11-1.18-1.24-2.48-1.91-3.15c-0.25-0.25-0.69-0.66-1.2-1.04c0.97-0.67,2.39-1.06,4.51-0.8c3.08,0.38,3.77,7.2,4.08,9.61
		c0.01,0.08,0.03,0.16,0.05,0.24c0.59,2.23-0.09,7.35-0.3,9.51c0,0.03-0.01,0.07-0.01,0.1c-0.01,0.27-0.06,1.53-0.09,2.07
		c-0.01,0.16,0.01,0.32,0.05,0.48c0.77,3.25,2.4,10.23,2.86,12c0.02,0.07,0.04,0.14,0.07,0.21C60.36,48.13,60.93,50.12,60.23,52.01z
		"/>
	<path class="st0" d="M41.08,19.4c-0.39-0.72-0.26-1.61,0.35-2.39c0.18-0.22,0.37-0.48,0.58-0.76c0.23-0.31,0.48-0.64,0.74-0.97
		c0.2-0.05,0.34-0.08,0.37-0.08c0.12,0.01,0.24,0.02,0.36,0.01c-0.38,0.46-0.74,0.94-1.05,1.36c-0.21,0.28-0.4,0.54-0.58,0.77
		c-0.48,0.61-0.59,1.28-0.31,1.81c0.3,0.55,0.98,0.84,1.82,0.76c0.46-0.04,0.91-0.16,1.31-0.32c1.23-0.49,2.09-1.33,2.1-1.35
		c0.1-0.1,0.27-0.1,0.37,0s0.1,0.27,0,0.37c-0.05,0.05-0.98,0.97-2.34,1.49c-0.43,0.17-0.9,0.29-1.4,0.33
		C42.35,20.53,41.48,20.14,41.08,19.4z"/>
	<path class="st0" d="M31.68,55.89c-0.18,0.02-0.37,0.03-0.55,0.03c-1.78,0-3.41-0.75-4.49-2.06c-2.67-3.23-3.13-4.81-3.01-6.31
		c0.04-0.55,0.24-1,0.58-1.35c-0.73,0.06-1.34,0.14-1.84,0.27c-1.61,0.43-2.56,1.49-2.68,3c-0.16,2.08,0.72,3.99,3.25,7.06
		c0.24,0.29,0.5,0.55,0.78,0.8h9.37L31.68,55.89z M56.25,49.59c-0.26-0.72-0.63-1.22-0.94-1.64c-0.24-0.34-0.46-0.63-0.68-1.1
		c-0.55-1.18-2.97-7.11-4.28-10.29c-0.36-0.88-0.66-1.6-0.84-2.05l0.17-2.37c0.03-0.2,0.06-0.43,0.11-0.68
		c0.06-0.36,0.13-0.78,0.21-1.23c0.01-0.07,0.02-0.13,0.03-0.2c-0.95,0.49-3.23,1.58-5.27,1.92c-0.15,0.01-0.3,0-0.45-0.01
		c0.19-0.44,0.35-0.92,0.47-1.44c0.27-1.2,0.24-2.16,0.24-2.2c-0.01-0.15-0.13-0.26-0.27-0.25c-0.15,0.01-0.26,0.13-0.25,0.28
		c0,0.03,0.08,2.63-1.27,4.47c-0.02-0.33-0.03-0.61-0.05-0.82c0.05-0.46,0.06-0.91,0.06-1.3c0-0.73-0.05-1.25-0.06-1.31
		c-0.02-0.14-0.14-0.25-0.29-0.23c-0.14,0.01-0.25,0.14-0.23,0.29c0,0.01,0.11,1.03,0.03,2.21c-0.08,1.11-0.29,1.98-0.62,2.57
		c-0.33,0.37-0.64,0.7-0.86,0.93c-0.17,0.14-0.31,0.27-0.45,0.37c0.95-1.84,0.57-3.88,0.55-3.99c-0.03-0.14-0.17-0.24-0.31-0.21
		c-0.14,0.03-0.24,0.17-0.21,0.31c0.01,0.03,0.39,2.15-0.65,3.9c0-0.02,0.01-0.04,0.01-0.06c0.06-0.18,0.1-0.36,0.06-0.55
		c0.02-0.26,0.03-0.43,0.03-0.45c0-0.12-0.08-0.23-0.2-0.26s-0.24,0.03-0.3,0.14c0,0.01-0.14,0.28-0.42,0.63
		c0.36-1.26,0.28-2.69,0.28-2.76c-0.01-0.14-0.13-0.25-0.28-0.25c-0.15,0.01-0.26,0.13-0.25,0.28c0,0.02,0.09,1.73-0.38,2.95
		c-0.26,0.66-0.83,1.3-1.3,1.75c0.12-0.4,0.27-0.96,0.46-1.71c0.27-1.08-0.01-2.34-0.36-3.34c0.02-0.09-0.02-0.19-0.09-0.25
		c-0.19-0.49-0.38-0.91-0.51-1.17l0,0c0.33-0.33,0.56-0.75,0.61-1.2c0.03-0.26,0.08-1.14-0.52-1.82c-0.23-0.25-0.6-0.54-1.19-0.64
		c0.16-0.13,0.3-0.28,0.42-0.44c0.9-0.08,1.64-0.72,1.88-1.56l1.59,0.22c0.19,1.1,1.15,1.95,2.31,1.95c1.3,0,2.35-1.05,2.35-2.35
		c0-1.3-1.05-2.35-2.35-2.35c-1.25,0-2.28,0.98-2.34,2.23l-1.47-0.24v-0.03c0-0.56-0.21-1.06-0.56-1.44
		c0.22-0.63,0.5-1.38,0.77-2.12c0.06,0.05,0.14,0.06,0.21,0.05c0.01,0,1.36-0.29,2.41,0.27c0.01-0.01,0.05,0,0.09,0
		c0.1,0,0.19-0.05,0.23-0.14c0.07-0.13,0.02-0.29-0.11-0.36c-1.08-0.57-2.36-0.39-2.69-0.33c0.5-1.33,0.95-2.48,0.96-2.51
		c0.05-0.14-0.01-0.29-0.15-0.34c-0.14-0.05-0.29,0.01-0.34,0.15c-0.02,0.04-0.08,0.21-0.19,0.48c-0.02-0.02-0.04-0.04-0.06-0.06
		c-0.11-0.09-0.31-0.18-0.6-0.06c-0.88,0.33-2.47,0.76-3.31-0.1c-0.23-0.24-0.33-0.44-0.29-0.57c0.08-0.21,0.56-0.39,0.98-0.43
		c1.14-0.11,1.72-1.12,2.22-2c0.33-0.57,0.64-1.11,1.05-1.38c-0.07-0.04-0.14-0.08-0.21-0.11c-0.11-0.06-0.22-0.11-0.34-0.16
		c-0.4,0.35-0.69,0.87-0.98,1.37c-0.48,0.85-0.94,1.65-1.8,1.73c-0.2,0.02-1.21,0.15-1.44,0.79c-0.13,0.35,0.01,0.74,0.41,1.15
		c1.05,1.09,2.89,0.62,3.9,0.24c0.03-0.01,0.05-0.02,0.06-0.02c0.04,0.08,0.05,0.31,0.02,0.5c-0.01,0.04,0,0.08,0.01,0.12
		c-0.39,1.02-0.91,2.38-1.28,3.45c-0.2-0.13-0.42-0.23-0.66-0.28c-0.16-0.04-0.33-0.06-0.5-0.06c-1.19,0-2.15,0.96-2.15,2.15
		c0,0.67,0.31,1.27,0.8,1.66c0.25,0.21,0.55,0.36,0.87,0.43c-0.22,0.2-0.47,0.38-0.77,0.52c-0.95,0.17-1.63,0.55-1.95,1.1
		c-0.7,0.58-1.24,1.41-1.21,2.67c0.05,2.16,0.89,5.07,1.77,6.11c0.05,0.06,0.12,0.09,0.2,0.09c0.02,0,0.04,0,0.06-0.01
		c0.1-0.02,0.17-0.1,0.19-0.2c0.22-1.03,0.5-1.75,0.7-2.2c0.16,0.49,0.42,1.14,0.8,1.52c0.08,0.07,0.18,0.1,0.28,0.06
		c0.1-0.04,0.16-0.13,0.17-0.23c0.06-1.03,0.84-2.44,1.31-3.21c0.03,0.05,0.06,0.11,0.1,0.18c0.21,0.78,0.33,1.65,0.15,2.39
		c-0.49,1.97-0.74,2.55-0.74,2.56c-0.05,0.11-0.02,0.24,0.08,0.31c0.05,0.04,0.11,0.06,0.17,0.06c0.05,0,0.11-0.02,0.16-0.05
		c0.05-0.04,0.96-0.72,1.63-1.63c0.01-0.01,0.02-0.01,0.03-0.02c0.4-0.29,0.72-0.61,0.96-0.89c-0.05,0.32-0.12,0.69-0.24,1.06
		c-0.03,0.12,0.01,0.24,0.12,0.3c0.04,0.03,0.09,0.04,0.14,0.04c0.07,0,0.13-0.03,0.18-0.08c0.03-0.03,0.06-0.06,0.09-0.09
		c0.12-0.04,0.42-0.17,1.01-0.63c0.03,0.24,0.06,0.58,0.06,1.01l0,0c0,0.91-0.12,2.22-0.61,3.83c-0.32,1.04-0.55,3.11-0.7,6.14
		c-0.05,1-0.09,2.1-0.12,3.31c0,0.13-0.01,0.25-0.01,0.38c-0.03,1.03-0.04,2.03-0.05,2.92c-0.03,0.35-0.13,0.77-0.33,0.95
		c-0.08,0.07-0.17,0.09-0.28,0.07c-0.79-0.14-2.32-1.13-3.18-1.72c-0.14-0.09-0.26-0.18-0.36-0.25c-0.04-0.03-0.08-0.06-0.12-0.08
		c0.05-0.1,0.1-0.2,0.14-0.31c0.23,0.02,0.46-0.03,0.67-0.11l0,0c0.1-0.03,0.2-0.08,0.3-0.14c0.11-0.06,0.22-0.13,0.31-0.2
		c0.48-0.38,0.84-0.91,0.99-1.5c0.17-0.66,0.1-1.37-0.15-2c-0.13-0.32-0.29-0.62-0.59-0.81c-0.17-0.11-0.37-0.16-0.57-0.17
		c-0.04,0-0.07-0.01-0.11-0.01c-0.09,0-0.17,0.01-0.25,0.01c-0.18,0.02-0.35,0.06-0.52,0.12c-0.01-0.15-0.02-0.29-0.02-0.4
		c0-0.03,0-0.07,0.01-0.1c0.03-0.29-0.03-0.52-0.2-0.69c-0.14-0.15-0.34-0.25-0.61-0.31c-0.01,0.09-0.02,0.19-0.03,0.29
		c-0.01,0.08-0.02,0.16-0.02,0.24c0.13,0.03,0.22,0.08,0.27,0.13c0.02,0.02,0.07,0.08,0.06,0.22c-0.07,0.11-0.2,0.21-0.39,0.3
		c-0.01,0.15-0.02,0.31-0.03,0.47c0,0.04-0.01,0.08-0.01,0.12c0.17-0.07,0.32-0.14,0.43-0.21c0.01,0.07,0.01,0.14,0.02,0.21
		c0.02,0.15,0.04,0.31,0.06,0.49c0.03,0.21,0.06,0.43,0.08,0.67c0.02,0.13,0.03,0.27,0.04,0.41c0.05,0.55,0.06,1.13,0,1.69
		c-0.01,0.13-0.03,0.25-0.06,0.38c-0.05,0.26-0.12,0.52-0.22,0.76c-0.05,0.12-0.1,0.24-0.17,0.35c-0.16,0.29-0.38,0.54-0.65,0.76
		c-0.88,0.68-1.99,0.97-3.14,0.83c-1.09-0.14-2.09-0.66-2.73-1.44c-1.59-1.93-2.61-3.45-2.66-4.84c0.69,0.2,2.34,0.6,4.4,0.6
		c0.16,0,0.32,0,0.48-0.01c1.85-0.06,3.03-0.26,3.78-0.5c-0.07-0.16-0.16-0.32-0.26-0.47c-0.82,0.24-2.05,0.4-3.54,0.44
		c-2.29,0.07-4.19-0.42-4.81-0.6c0.19-0.46,1.07-0.67,4.35-0.72c0.8-0.01,1.5-0.04,2.12-0.06c0.28-0.01,0.54-0.02,0.79-0.03
		c-0.47-0.24-0.98-0.35-1.49-0.4c-0.03,0-0.06,0-0.09,0c-0.28-0.03-0.56-0.03-0.83-0.03c-0.44,0-0.94,0.02-1.52,0.04l-0.22,0.01
		c-0.38,0.01-0.79,0.03-1.24,0.04c-1.74,0.14-2.36,0.48-2.42,1.31c-0.1,1.24,0.33,2.6,2.77,5.56c0.91,1.1,2.29,1.67,3.68,1.67
		c0.31,0,0.63-0.03,0.94-0.09l0.62,0.64l2.08,2.14h1.78l4.95,2.2c0.03-0.04,0.06-0.08,0.09-0.13c0.31-0.48,0.61-1.17,0.89-1.93
		c0.89-2.48,1.54-5.81,1.57-6l0.12-0.26l0.46-0.18c-0.9,3.01-1.6,6.02-1.65,6.25l-0.03,0.18l6,0.13l0.38,0.01l0.35,0.01l5.3,0.11
		c0-0.04,0.01-0.08,0.01-0.12c0.13-1.17,0.27-2.57,0.34-3.79c0.01-0.26,0.09-0.41,0.27-0.75C56.22,52.42,56.85,51.25,56.25,49.59z
		 M34.41,33.36c-0.01,0.07-0.03,0.13-0.04,0.2c-0.1,0.15-0.55,0.87-0.93,2.34c-0.72-1.28-1.29-3.74-1.33-5.3
		c-0.02-0.7,0.17-1.24,0.47-1.67c0.04,0.36,0.23,0.81,0.75,1.25c0.25,0.21,0.4,0.35,0.51,0.45c0.47,0.44,0.72,0.55,1.36,0.55
		c0.44,0,0.88-0.14,1.24-0.37c0.12,0.25,0.29,0.62,0.45,1.04c-0.31,0.48-1.22,1.93-1.54,3.22c-0.32-0.62-0.48-1.41-0.49-1.42
		c-0.02-0.1-0.1-0.18-0.2-0.21c-0.09-0.02-0.17,0.01-0.24,0.06C34.41,33.45,34.41,33.41,34.41,33.36z M36.21,48.15
		c0.02,0,0.04,0,0.05,0.01c0.05,0.01,0.09,0.02,0.12,0.03c0.14,0.06,0.22,0.18,0.29,0.34c0.12,0.27,0.2,0.57,0.21,0.86
		c0.03,0.54-0.1,1.08-0.45,1.5c0,0.01-0.01,0.01-0.01,0.01c-0.04,0.05-0.09,0.1-0.14,0.15c-0.19,0.19-0.47,0.39-0.74,0.43
		c0.03-0.14,0.05-0.28,0.06-0.42c0.09-0.77,0.03-1.57-0.05-2.28l0,0c-0.02-0.17-0.04-0.33-0.06-0.48
		C35.72,48.18,35.99,48.14,36.21,48.15z M39.35,38.12c-0.24,0-0.48-0.07-0.69-0.2c-0.02-0.01-0.03-0.02-0.05-0.03
		c-0.61,0.65-1.18,1.09-1.27,1.15c-0.23,0.17-0.51,0.26-0.79,0.26c-0.3,0-0.59-0.1-0.83-0.29c-0.46-0.37-0.62-1.01-0.39-1.55
		c0.01-0.01,0.03-0.08,0.07-0.2c-0.06,0.01-0.12,0.01-0.18,0.01c-0.24,0-0.47-0.06-0.67-0.18c-0.12,0.47-0.48,0.83-0.96,0.95
		c-0.1,0.03-0.21,0.04-0.32,0.04c-0.39,0-0.76-0.17-1.01-0.47c-1.15-1.35-1.98-4.59-2.03-6.77c-0.06-2.52,1.59-3.69,2.98-4.38
		c-0.45-0.55-0.72-1.26-0.72-2.03c0-1.77,1.44-3.21,3.21-3.21c0.18,0,0.35,0.01,0.53,0.04c0.16-0.42,0.31-0.85,0.47-1.26
		c-0.24,0.03-0.48,0.05-0.73,0.05c-1.04,0-1.93-0.34-2.56-0.99c-0.93-0.96-0.8-1.82-0.65-2.25c0.44-1.2,1.9-1.43,2.33-1.47
		c0.31-0.03,0.65-0.63,0.99-1.2c0.25-0.44,0.55-0.96,0.95-1.39c-0.19-0.03-0.39-0.04-0.59-0.04c-0.25,0-0.51,0.02-0.76,0.06
		c-1.93,0.28-2.85,1.89-3.41,2.86c-0.12,0.21-0.31,0.53-0.43,0.71c-0.78,0.12-2.38,0.56-2.96,2.13c-0.2,0.54-0.5,1.93,0.88,3.35
		c0.33,0.34,0.71,0.62,1.13,0.83c-1.39,0.71-2.34,2.15-2.34,3.8c0,0.56,0.11,1.12,0.32,1.63c-1.14,0.75-2.64,2.18-2.58,4.8
		c0.05,2.35,0.94,5.85,2.27,7.43c0.45,0.54,1.11,0.84,1.81,0.84c0.2,0,0.4-0.03,0.58-0.07c0.17-0.04,0.33-0.1,0.49-0.18
		c0.15,0.37,0.39,0.7,0.71,0.96c0.42,0.33,0.95,0.52,1.49,0.52c0.51,0,1.02-0.17,1.42-0.47c0.04-0.03,0.15-0.12,0.31-0.24
		c-0.06,0.28-0.14,0.55-0.23,0.83c-0.2,0.65-0.36,1.54-0.49,2.71v0.01c0.03,0.01,0.07,0.01,0.1,0.02c0.01,0,0.03,0.01,0.04,0.01
		c0.05,0.02,0.1,0.03,0.14,0.05s0.08,0.03,0.12,0.05c0.23,0.1,0.44,0.24,0.62,0.44c0.21,0.23,0.43,0.58,0.48,1.1l0,0
		c0,0.02,0,0.05,0.01,0.07h0.02c0.33,0.01,0.62,0.09,0.85,0.23c0.41,0.25,0.62,0.66,0.75,0.99c0.29,0.72,0.35,1.51,0.16,2.24
		c-0.17,0.68-0.57,1.29-1.13,1.71c-0.13,0.1-0.32,0.23-0.55,0.33c0.72,0.48,1.37,0.87,1.85,1.1c0.01-1.06,0.03-2.09,0.05-3.06
		c0.13-5.04,0.42-8.22,0.87-9.72c0.32-1.06,0.47-1.97,0.53-2.7C39.52,38.11,39.44,38.12,39.35,38.12z"/>
	<path class="st1" d="M37.11,32.49c-0.01,0.02-0.02,0.03-0.03,0.05c0.03,0.05,0.06,0.11,0.1,0.18
		C37.15,32.64,37.13,32.56,37.11,32.49z M34.68,45.2L34.68,45.2c0.03,0.02,0.07,0.02,0.1,0.03C34.75,45.22,34.71,45.21,34.68,45.2z
		 M57.41,48.08c-0.32-0.88-0.94-1.26-1.54-2.57c-0.78-1.69-5.02-12.13-5.35-12.88l0.11-1.52l0.1-1.43c0.14-0.92,0.47-2.95,0.86-4.89
		c0.32-1.59-0.01-2.82-0.33-4c-0.23-0.85-0.44-1.65-0.43-2.57c0.04-1.89-1.59-4.13-3.17-5.1c-0.44-0.27-0.87-0.44-1.27-0.48
		c-0.83-0.09-1.7,0.5-2.5,1.32c-1.29,0.03-1.93-0.36-2.56-0.74c-0.61-0.37-1.18-0.71-2.18-0.57c-0.36,0.05-0.65,0.21-0.9,0.44
		c-0.4,0.35-0.69,0.87-0.98,1.37c-0.48,0.85-0.94,1.65-1.8,1.73c-0.2,0.02-1.21,0.15-1.44,0.79c-0.13,0.35,0.01,0.74,0.41,1.15
		c1.05,1.09,2.89,0.62,3.9,0.24c0.03-0.01,0.05-0.02,0.06-0.02c0.04,0.08,0.05,0.31,0.02,0.5c-0.01,0.04,0,0.08,0.01,0.12
		c-0.39,1.02-0.91,2.38-1.28,3.45c-0.2-0.13-0.42-0.23-0.66-0.28c-0.16-0.04-0.33-0.06-0.5-0.06c-1.19,0-2.15,0.96-2.15,2.15
		c0,0.67,0.31,1.27,0.8,1.66c0.25,0.21,0.55,0.36,0.87,0.43c-0.22,0.2-0.47,0.38-0.77,0.52c-0.95,0.17-1.63,0.55-1.95,1.1
		c-0.7,0.58-1.24,1.41-1.21,2.67c0.05,2.16,0.89,5.07,1.77,6.11c0.05,0.06,0.12,0.09,0.2,0.09c0.02,0,0.04,0,0.06-0.01
		c0.1-0.02,0.17-0.1,0.19-0.2c0.22-1.03,0.5-1.75,0.7-2.2c0.16,0.49,0.42,1.14,0.8,1.52c0.08,0.07,0.18,0.1,0.28,0.06
		c0.1-0.04,0.16-0.13,0.17-0.23c0.06-1.03,0.84-2.44,1.31-3.21c0.03,0.05,0.06,0.11,0.1,0.18c0.21,0.78,0.33,1.65,0.15,2.39
		c-0.49,1.97-0.74,2.55-0.74,2.56c-0.05,0.11-0.02,0.24,0.08,0.31c0.05,0.04,0.11,0.06,0.17,0.06c0.05,0,0.11-0.02,0.16-0.05
		c0.05-0.04,0.96-0.72,1.63-1.63c0.01-0.01,0.02-0.01,0.03-0.02c0.4-0.29,0.72-0.61,0.96-0.89c-0.05,0.32-0.12,0.69-0.24,1.06
		c-0.03,0.12,0.01,0.24,0.12,0.3c0.04,0.03,0.09,0.04,0.14,0.04c0.07,0,0.13-0.03,0.18-0.08c0.03-0.03,0.06-0.06,0.09-0.09
		c0.12-0.04,0.42-0.17,1.01-0.63c0.03,0.24,0.06,0.58,0.06,1.01l0,0c0,0.91-0.12,2.22-0.61,3.83c-0.32,1.04-0.55,3.11-0.7,6.14
		c-0.05,1-0.09,2.1-0.12,3.31c0,0.13-0.01,0.25-0.01,0.38c-0.03,1.03-0.04,2.03-0.05,2.92c-0.03,0.35-0.13,0.77-0.33,0.95
		c-0.08,0.07-0.17,0.09-0.28,0.07c-0.79-0.14-2.32-1.13-3.18-1.72c-0.14-0.09-0.26-0.18-0.36-0.25c-0.04-0.03-0.08-0.06-0.12-0.08
		c0.05-0.1,0.1-0.2,0.14-0.31c0.23,0.02,0.46-0.03,0.67-0.11l0,0c0.1-0.03,0.2-0.08,0.3-0.14c0.08-0.38,0.13-0.76,0.14-1.14
		c0,0.01-0.01,0.01-0.01,0.01c-0.04,0.05-0.09,0.1-0.14,0.15c-0.19,0.19-0.47,0.39-0.74,0.43c0.03-0.14,0.05-0.28,0.06-0.42
		c0.09-0.77,0.03-1.57-0.05-2.28l0,0c-0.02-0.17-0.04-0.33-0.06-0.48c0.21-0.12,0.48-0.16,0.7-0.16c0.02,0,0.04,0,0.05,0.01
		c-0.03-0.3-0.08-0.66-0.08-0.81c-0.09,0-0.17,0.01-0.25,0.01c-0.18,0.02-0.35,0.06-0.52,0.12c-0.01-0.15-0.02-0.29-0.02-0.4
		c0-0.03,0-0.07,0.01-0.1c0.03-0.29-0.03-0.52-0.2-0.69c-0.14-0.15-0.34-0.25-0.61-0.31c-0.54-0.12-1.38-0.09-2.63-0.04
		c-0.61,0.02-1.31,0.05-2.11,0.06c-1.01,0.02-1.83,0.04-2.49,0.1c-1.74,0.14-2.36,0.48-2.42,1.31c-0.1,1.24,0.33,2.6,2.77,5.56
		c0.91,1.1,2.29,1.67,3.68,1.67c0.31,0,0.63-0.03,0.94-0.09l0.62,0.64l2.08,2.14l0.31,0.32l0.01,0.01c0.15,0.12,2.96,2.35,5.03,2.35
		c0.52,0,1.05-0.1,1.38-0.48c0.03-0.04,0.06-0.08,0.09-0.13c0.31-0.48,0.61-1.17,0.89-1.93c0.89-2.48,1.54-5.81,1.57-6l0.12-0.26
		l0.46-0.18c-0.9,3.01-1.6,6.02-1.65,6.25l-0.03,0.18l6,0.13l0.38,0.01l0.35,0.01l5.3,0.11L56,57.74l0.02-0.14
		c0.01-0.03,0.47-3.49,0.63-6.14C56.74,49.81,57.91,49.47,57.41,48.08z M34.41,33.36c-0.01,0.07-0.03,0.13-0.04,0.2
		c-0.1,0.15-0.55,0.87-0.93,2.34c-0.72-1.28-1.29-3.74-1.33-5.3c-0.02-0.7,0.17-1.24,0.47-1.67c0.04,0.36,0.23,0.81,0.75,1.25
		c0.25,0.21,0.4,0.35,0.51,0.45c0.47,0.44,0.72,0.55,1.36,0.55c0.44,0,0.88-0.14,1.24-0.37c0.12,0.25,0.29,0.62,0.45,1.04
		c-0.31,0.48-1.22,1.93-1.54,3.22c-0.32-0.62-0.48-1.41-0.49-1.42c-0.02-0.1-0.1-0.18-0.2-0.21c-0.09-0.02-0.17,0.01-0.24,0.06
		C34.41,33.45,34.41,33.41,34.41,33.36z M36.86,30.46L36.86,30.46c0.33-0.33,0.56-0.75,0.61-1.2c0.03-0.26,0.08-1.14-0.52-1.82
		c-0.23-0.25-0.6-0.54-1.19-0.64c0.16-0.13,0.3-0.28,0.42-0.44c0.9-0.08,1.64-0.72,1.88-1.56l1.59,0.22
		c0.19,1.1,1.15,1.95,2.31,1.95c1.3,0,2.35-1.05,2.35-2.35c0-1.3-1.05-2.35-2.35-2.35c-1.25,0-2.28,0.98-2.34,2.23l-1.47-0.24v-0.03
		c0-0.56-0.21-1.06-0.56-1.44c0.22-0.63,0.5-1.38,0.77-2.12c0.06,0.05,0.14,0.06,0.21,0.05c0.01,0,1.36-0.29,2.41,0.27
		c0.04,0,0.08,0.01,0.12,0.01c0.1,0,0.19-0.05,0.23-0.14c0.07-0.13,0.02-0.29-0.11-0.36c-1.08-0.57-2.36-0.39-2.69-0.33
		c0.5-1.33,0.95-2.48,0.96-2.51c0.05-0.14-0.01-0.29-0.15-0.34c-0.14-0.05-0.29,0.01-0.34,0.15c-0.02,0.04-0.08,0.21-0.19,0.48
		c-0.02-0.02-0.04-0.04-0.06-0.06c-0.11-0.09-0.31-0.18-0.6-0.06c-0.88,0.33-2.47,0.76-3.31-0.1c-0.23-0.24-0.33-0.44-0.29-0.57
		c0.08-0.21,0.56-0.39,0.98-0.43c1.14-0.11,1.72-1.12,2.22-2c0.33-0.57,0.64-1.11,1.05-1.38c0.13-0.09,0.27-0.14,0.43-0.17
		c0.8-0.12,1.25,0.15,1.81,0.49c0.55,0.33,1.21,0.74,2.34,0.81c-0.23,0.26-0.45,0.53-0.66,0.8c-0.26,0.33-0.51,0.66-0.74,0.97
		c-0.21,0.27-0.4,0.53-0.58,0.76c-0.61,0.78-0.74,1.67-0.35,2.39c0.4,0.74,1.27,1.13,2.33,1.03c0.5-0.04,0.97-0.17,1.4-0.33
		c1.36-0.52,2.29-1.44,2.34-1.49c0.1-0.1,0.1-0.27,0-0.37s-0.27-0.1-0.37,0c-0.01,0.01-0.87,0.85-2.1,1.35
		c-0.4,0.16-0.85,0.28-1.31,0.32c-0.84,0.08-1.52-0.21-1.82-0.76c-0.28-0.53-0.17-1.2,0.31-1.81c0.18-0.23,0.38-0.49,0.58-0.77
		c0.31-0.42,0.67-0.89,1.05-1.36c0.92-1.12,1.98-2.16,2.87-2.07c0.3,0.03,0.63,0.16,0.97,0.36c1.44,0.85,3.03,3,3,4.69
		c-0.02,1,0.22,1.88,0.45,2.72c0.32,1.18,0.62,2.29,0.32,3.75c-0.46,2.27-0.83,4.68-0.92,5.28c-0.04,0.02-0.08,0.04-0.13,0.06
		c-0.95,0.49-3.23,1.58-5.27,1.92c-0.15,0.01-0.3,0-0.45-0.01c0.19-0.44,0.35-0.92,0.47-1.44c0.27-1.2,0.24-2.16,0.24-2.2
		c-0.01-0.15-0.13-0.26-0.27-0.25c-0.15,0.01-0.26,0.13-0.25,0.28c0,0.03,0.08,2.63-1.27,4.47c-0.02-0.33-0.03-0.61-0.05-0.82
		c0.05-0.46,0.06-0.91,0.06-1.3c0-0.73-0.05-1.25-0.06-1.31c-0.02-0.14-0.14-0.25-0.29-0.23c-0.14,0.01-0.25,0.14-0.23,0.29
		c0,0.01,0.11,1.03,0.03,2.21c-0.08,1.11-0.29,1.98-0.62,2.57c-0.33,0.37-0.64,0.7-0.86,0.93c-0.17,0.14-0.31,0.27-0.45,0.37
		c0.95-1.84,0.57-3.88,0.55-3.99c-0.03-0.14-0.17-0.24-0.31-0.21c-0.14,0.03-0.24,0.17-0.21,0.31c0.01,0.03,0.39,2.15-0.65,3.9
		c0-0.02,0.01-0.04,0.01-0.06c0.06-0.18,0.1-0.36,0.06-0.55c0.02-0.26,0.03-0.43,0.03-0.45c0-0.12-0.08-0.23-0.2-0.26
		s-0.24,0.03-0.3,0.14c0,0.01-0.14,0.28-0.42,0.63c0.36-1.26,0.28-2.69,0.28-2.76c-0.01-0.14-0.13-0.25-0.28-0.25
		c-0.15,0.01-0.26,0.13-0.25,0.28c0,0.02,0.09,1.73-0.38,2.95c-0.26,0.66-0.83,1.3-1.3,1.75c0.12-0.4,0.27-0.96,0.46-1.71
		c0.27-1.08-0.01-2.34-0.36-3.34c0.02-0.09-0.02-0.19-0.09-0.25C37.19,31.14,37,30.72,36.86,30.46z M30.86,54.07
		c-1.09-0.14-2.09-0.66-2.73-1.44c-1.59-1.93-2.61-3.45-2.66-4.84c0.69,0.2,2.34,0.6,4.4,0.6c0.16,0,0.32,0,0.48-0.01
		c1.85-0.06,3.03-0.26,3.78-0.5c0.07-0.02,0.13-0.05,0.19-0.07c0.05-0.02,0.1-0.03,0.14-0.06c0.17-0.07,0.32-0.14,0.43-0.21
		c0.01,0.07,0.01,0.14,0.02,0.21c0.02,0.15,0.04,0.31,0.06,0.49c0.03,0.21,0.06,0.43,0.08,0.67c0.02,0.13,0.03,0.27,0.04,0.41
		c0.05,0.55,0.06,1.13,0,1.69c-0.01,0.13-0.03,0.25-0.06,0.38c-0.05,0.26-0.12,0.52-0.22,0.76c-0.05,0.12-0.1,0.24-0.17,0.35
		c-0.16,0.29-0.38,0.54-0.65,0.76C33.12,53.92,32,54.21,30.86,54.07z M32.77,46.44c0.8-0.02,1.43-0.02,1.78,0.07
		c0.13,0.03,0.22,0.08,0.27,0.13c0.02,0.02,0.07,0.08,0.06,0.22c-0.07,0.11-0.2,0.21-0.39,0.3c-0.17,0.09-0.38,0.17-0.63,0.24
		c-0.82,0.24-2.05,0.4-3.54,0.44c-2.29,0.07-4.19-0.42-4.81-0.6c0.19-0.46,1.07-0.67,4.35-0.72c0.8-0.01,1.5-0.04,2.12-0.06
		C32.26,46.46,32.52,46.45,32.77,46.44z M51.64,18.45c0.01-0.5-0.07-1.04-0.24-1.58c0.03,0.35,0.05,0.66,0.07,0.94
		c0.05,0.75,0.08,1.25,0.27,1.84c0.03,0.1,0.06,0.21,0.1,0.32C51.71,19.46,51.63,18.97,51.64,18.45z"/>
	<path class="st1" d="M36.2,46.88c0,0.02,0,0.05,0.01,0.07h0.02C36.21,46.93,36.2,46.91,36.2,46.88z M35.62,51.06
		c0.09-0.77,0.03-1.57-0.05-2.28l0,0c-0.02-0.17-0.04-0.33-0.06-0.48c0.21-0.12,0.48-0.16,0.7-0.16c0.02,0,0.04,0,0.05,0.01
		c0.05,0.01,0.09,0.02,0.12,0.03c-0.02-0.28-0.05-0.56-0.09-0.84c-0.04,0-0.07-0.01-0.11-0.01c-0.09,0-0.17,0.01-0.25,0.01
		c-0.18,0.02-0.35,0.06-0.52,0.12c-0.01-0.15-0.02-0.29-0.02-0.4c0-0.03,0-0.07,0.01-0.1c0.03-0.29-0.03-0.52-0.2-0.69
		c-0.14-0.15-0.34-0.25-0.61-0.31c-0.54-0.12-1.38-0.09-2.63-0.04c-0.61,0.02-1.31,0.05-2.11,0.06c-1.01,0.02-1.83,0.04-2.49,0.1
		c-1.74,0.14-2.36,0.48-2.42,1.31c-0.1,1.24,0.33,2.6,2.77,5.56c0.91,1.1,2.29,1.67,3.68,1.67c0.31,0,0.63-0.03,0.94-0.09l0.62,0.64
		c1.39-0.5,2.22-1.36,2.72-2.27c-0.14-0.09-0.26-0.18-0.36-0.25c-0.04-0.03-0.08-0.06-0.12-0.08c0.05-0.1,0.1-0.2,0.14-0.31
		c0.23,0.02,0.46-0.03,0.67-0.11l0,0c0.14-0.38,0.23-0.76,0.29-1.12c-0.19,0.19-0.47,0.39-0.74,0.43
		C35.59,51.34,35.6,51.21,35.62,51.06z M33.99,53.24c-0.88,0.68-1.99,0.97-3.14,0.83c-1.09-0.14-2.09-0.66-2.73-1.44
		c-1.59-1.93-2.61-3.45-2.66-4.84c0.69,0.2,2.34,0.6,4.4,0.6c0.16,0,0.32,0,0.48-0.01c1.85-0.06,3.03-0.26,3.78-0.5
		c0.07-0.02,0.13-0.05,0.19-0.07c0.05-0.02,0.1-0.03,0.14-0.06c0.17-0.07,0.32-0.14,0.43-0.21c0.01,0.07,0.01,0.14,0.02,0.21
		c0.02,0.15,0.04,0.31,0.06,0.49c0.03,0.21,0.06,0.43,0.08,0.67c0.02,0.13,0.03,0.27,0.04,0.41c0.05,0.55,0.06,1.13,0,1.69
		c-0.01,0.13-0.03,0.25-0.06,0.38c-0.05,0.26-0.12,0.52-0.22,0.76c-0.05,0.12-0.1,0.24-0.17,0.35
		C34.48,52.77,34.27,53.03,33.99,53.24z M32.77,46.44c0.8-0.02,1.43-0.02,1.78,0.07c0.13,0.03,0.22,0.08,0.27,0.13
		c0.02,0.02,0.07,0.08,0.06,0.22c-0.07,0.11-0.2,0.21-0.39,0.3c-0.17,0.09-0.38,0.17-0.63,0.24c-0.82,0.24-2.05,0.4-3.54,0.44
		c-2.29,0.07-4.19-0.42-4.81-0.6c0.19-0.46,1.07-0.67,4.35-0.72c0.8-0.01,1.5-0.04,2.12-0.06C32.26,46.46,32.52,46.45,32.77,46.44z"
		/>
	<path class="st1" d="M51.83,19.97c0.05,0.24,0.12,0.47,0.18,0.73C51.96,20.44,51.9,20.19,51.83,19.97z M51.27,20.79
		c-0.23-0.85-0.44-1.65-0.43-2.57c0.04-1.89-1.59-4.13-3.17-5.1c-0.44-0.27-0.87-0.44-1.27-0.48c-0.83-0.09-1.7,0.5-2.5,1.32
		c-1.29,0.03-1.93-0.36-2.56-0.74c-0.61-0.37-1.18-0.71-2.18-0.57c-0.36,0.05-0.65,0.21-0.9,0.44c-0.4,0.35-0.69,0.87-0.98,1.37
		c-0.48,0.85-0.94,1.65-1.8,1.73c-0.2,0.02-1.21,0.15-1.44,0.79c-0.13,0.35,0.01,0.74,0.41,1.15c1.05,1.09,2.89,0.62,3.9,0.24
		c0.03-0.01,0.05-0.02,0.06-0.02c0.04,0.08,0.05,0.31,0.02,0.5c-0.01,0.04,0,0.08,0.01,0.12c-0.39,1.02-0.91,2.38-1.28,3.45
		c-0.2-0.13-0.42-0.23-0.66-0.28c-0.6,1.68-1.11,3.04-1.32,3.48c-0.12,0.07-0.32,0.17-0.5,0.25c-0.01,0.01-0.03,0.01-0.04,0.02
		c0.25,0.21,0.55,0.36,0.87,0.43c-0.22,0.2-0.47,0.38-0.77,0.52c-0.95,0.17-1.63,0.55-1.95,1.1c-0.7,0.58-1.24,1.41-1.21,2.67
		c0.05,2.16,0.89,5.07,1.77,6.11c0.05,0.06,0.12,0.09,0.2,0.09c0.02,0,0.04,0,0.06-0.01c0.1-0.02,0.17-0.1,0.19-0.2
		c0.22-1.03,0.5-1.75,0.7-2.2c0.16,0.49,0.42,1.14,0.8,1.52c0.08,0.07,0.18,0.1,0.28,0.06c0.1-0.04,0.16-0.13,0.17-0.23
		c0.06-1.03,0.84-2.44,1.31-3.21c0.03,0.05,0.06,0.11,0.1,0.18c0.21,0.78,0.33,1.65,0.15,2.39c-0.49,1.97-0.74,2.55-0.74,2.56
		c-0.05,0.11-0.02,0.24,0.08,0.31c0.05,0.04,0.11,0.06,0.17,0.06c0.05,0,0.11-0.02,0.16-0.05c0.05-0.04,0.96-0.72,1.63-1.63
		c0.01-0.01,0.02-0.01,0.03-0.02c0.4-0.29,0.72-0.61,0.96-0.89c-0.05,0.32-0.12,0.69-0.24,1.06c-0.03,0.12,0.01,0.24,0.12,0.3
		c0.04,0.03,0.09,0.04,0.14,0.04c0.07,0,0.13-0.03,0.18-0.08c0.03-0.03,0.06-0.06,0.09-0.09c0.12-0.04,0.42-0.17,1.01-0.63
		c0.03,0.24,0.06,0.58,0.06,1.01c0.94-0.63,1.84-1.96,2.36-2.82c0.01-0.02,0.03-0.04,0.04-0.06l6.43-2.71l0.84-0.35l0.1-1.43
		c0.14-0.92,0.47-2.95,0.86-4.89C51.92,23.2,51.59,21.97,51.27,20.79z M34.41,33.36c-0.01,0.07-0.03,0.13-0.04,0.2
		c-0.1,0.15-0.55,0.87-0.93,2.34c-0.72-1.28-1.29-3.74-1.33-5.3c-0.02-0.7,0.17-1.24,0.47-1.67c0.04,0.36,0.23,0.81,0.75,1.25
		c0.25,0.21,0.4,0.35,0.51,0.45c0.47,0.44,0.72,0.55,1.36,0.55c0.44,0,0.88-0.14,1.24-0.37c0.12,0.25,0.29,0.62,0.45,1.04
		c-0.31,0.48-1.22,1.93-1.54,3.22c-0.32-0.62-0.48-1.41-0.49-1.42c-0.02-0.1-0.1-0.18-0.2-0.21c-0.09-0.02-0.17,0.01-0.24,0.06
		C34.41,33.45,34.41,33.41,34.41,33.36z M36.86,30.46L36.86,30.46c0.33-0.33,0.56-0.75,0.61-1.2c0.03-0.26,0.08-1.14-0.52-1.82
		c-0.23-0.25-0.6-0.54-1.19-0.64c0.16-0.13,0.3-0.28,0.42-0.44c0.9-0.08,1.64-0.72,1.88-1.56l1.59,0.22
		c0.19,1.1,1.15,1.95,2.31,1.95c1.3,0,2.35-1.05,2.35-2.35c0-1.3-1.05-2.35-2.35-2.35c-1.25,0-2.28,0.98-2.34,2.23l-1.47-0.24v-0.03
		c0-0.56-0.21-1.06-0.56-1.44c0.22-0.63,0.5-1.38,0.77-2.12c0.06,0.05,0.14,0.06,0.21,0.05c0.01,0,1.36-0.29,2.41,0.27
		c0.04,0,0.08,0.01,0.12,0.01c0.1,0,0.19-0.05,0.23-0.14c0.07-0.13,0.02-0.29-0.11-0.36c-1.08-0.57-2.36-0.39-2.69-0.33
		c0.5-1.33,0.95-2.48,0.96-2.51c0.05-0.14-0.01-0.29-0.15-0.34c-0.14-0.05-0.29,0.01-0.34,0.15c-0.02,0.04-0.08,0.21-0.19,0.48
		c-0.02-0.02-0.04-0.04-0.06-0.06c-0.11-0.09-0.31-0.18-0.6-0.06c-0.88,0.33-2.47,0.76-3.31-0.1c-0.23-0.24-0.33-0.44-0.29-0.57
		c0.08-0.21,0.56-0.39,0.98-0.43c1.14-0.11,1.72-1.12,2.22-2c0.33-0.57,0.64-1.11,1.05-1.38c0.13-0.09,0.27-0.14,0.43-0.17
		c0.8-0.12,1.25,0.15,1.81,0.49c0.55,0.33,1.21,0.74,2.34,0.81c-0.23,0.26-0.45,0.53-0.66,0.8c-0.26,0.33-0.51,0.66-0.74,0.97
		c-0.21,0.27-0.4,0.53-0.58,0.76c-0.61,0.78-0.74,1.67-0.35,2.39c0.4,0.74,1.27,1.13,2.33,1.03c0.5-0.04,0.97-0.17,1.4-0.33
		c1.36-0.52,2.29-1.44,2.34-1.49c0.1-0.1,0.1-0.27,0-0.37s-0.27-0.1-0.37,0c-0.01,0.01-0.87,0.85-2.1,1.35
		c-0.4,0.16-0.85,0.28-1.31,0.32c-0.84,0.08-1.52-0.21-1.82-0.76c-0.28-0.53-0.17-1.2,0.31-1.81c0.18-0.23,0.38-0.49,0.58-0.77
		c0.31-0.42,0.67-0.89,1.05-1.36c0.92-1.12,1.98-2.16,2.87-2.07c0.3,0.03,0.63,0.16,0.97,0.36c1.44,0.85,3.03,3,3,4.69
		c-0.02,1,0.22,1.88,0.45,2.72c0.32,1.18,0.62,2.29,0.32,3.75c-0.46,2.27-0.83,4.68-0.92,5.28c-0.04,0.02-0.08,0.04-0.13,0.06
		c-0.95,0.49-3.23,1.58-5.27,1.92c-0.15,0.01-0.3,0-0.45-0.01c0.19-0.44,0.35-0.92,0.47-1.44c0.27-1.2,0.24-2.16,0.24-2.2
		c-0.01-0.15-0.13-0.26-0.27-0.25c-0.15,0.01-0.26,0.13-0.25,0.28c0,0.03,0.08,2.63-1.27,4.47c-0.02-0.33-0.03-0.61-0.05-0.82
		c0.05-0.46,0.06-0.91,0.06-1.3c0-0.73-0.05-1.25-0.06-1.31c-0.02-0.14-0.14-0.25-0.29-0.23c-0.14,0.01-0.25,0.14-0.23,0.29
		c0,0.01,0.11,1.03,0.03,2.21c-0.08,1.11-0.29,1.98-0.62,2.57c-0.33,0.37-0.64,0.7-0.86,0.93c-0.17,0.14-0.31,0.27-0.45,0.37
		c0.95-1.84,0.57-3.88,0.55-3.99c-0.03-0.14-0.17-0.24-0.31-0.21c-0.14,0.03-0.24,0.17-0.21,0.31c0.01,0.03,0.39,2.15-0.65,3.9
		c0-0.02,0.01-0.04,0.01-0.06c0.06-0.18,0.1-0.36,0.06-0.55c0.02-0.26,0.03-0.43,0.03-0.45c0-0.12-0.08-0.23-0.2-0.26
		s-0.24,0.03-0.3,0.14c0,0.01-0.14,0.28-0.42,0.63c0.36-1.26,0.28-2.69,0.28-2.76c-0.01-0.14-0.13-0.25-0.28-0.25
		c-0.15,0.01-0.26,0.13-0.25,0.28c0,0.02,0.09,1.73-0.38,2.95c-0.26,0.66-0.83,1.3-1.3,1.75c0.12-0.4,0.27-0.96,0.46-1.71
		c0.27-1.08-0.01-2.34-0.36-3.34c0.02-0.09-0.02-0.19-0.09-0.25C37.19,31.14,37,30.72,36.86,30.46z"/>
	<path class="st1" d="M50.73,19.98c-0.32-0.98-0.27-1.74-0.39-3.09c-0.09-1.01-1.64-2.72-2.87-3.57c-0.41-0.28-0.79-0.47-1.06-0.5
		c-1.08-0.12-1.89,1.45-2.87,1.43c-0.98-0.03-3.07-1.4-4.25-1.35c-0.23,0.01-0.46,0.14-0.69,0.35c-0.98,0.88-1.96,3.12-2.48,3.18
		c-0.64,0.07-2.04,0.07-1.6,1.2c0.44,1.13,2.82,0.86,3.56,0.57s0.76,0.42,0.76,0.42s-2.48,7.22-2.85,7.68
		c-0.12,0.16-0.41,0.3-0.79,0.48c-0.01,0-0.01,0-0.02,0c-0.69,0.33-1.67,0.81-2.62,1.73c-0.1,0.1-0.2,0.21-0.31,0.32
		c-1.55,1.69,1.2,7.59,1.2,7.59s0.58-1.43,0.89-2.85c-0.1,0.15-0.55,0.87-0.93,2.34c-0.72-1.28-1.29-3.74-1.33-5.3
		c-0.02-0.7,0.17-1.24,0.47-1.67c0.04,0.36,0.23,0.81,0.75,1.25c0.25,0.21,0.4,0.35,0.51,0.45c0.47,0.44,0.72,0.55,1.36,0.55
		c0.44,0,0.88-0.14,1.24-0.37c0.12,0.25,0.29,0.62,0.45,1.04c-0.31,0.48-1.22,1.93-1.54,3.22c-0.32-0.62-0.48-1.41-0.49-1.42
		c-0.02-0.1-0.1-0.18-0.2-0.21c-0.09-0.02-0.17,0.01-0.24,0.06c0.09,0.94,0.67,1.44,1.1,1.93c0.02-0.61,1.32-3.22,1.32-3.22
		s0.09,0.09,0.24,0.33c0.03,0.05,0.06,0.11,0.1,0.18c0.12,0.22,0.25,0.52,0.4,0.92c0.39,1.08-0.24,2.82-0.42,3.88
		c0.54-0.24,2.45-2.72,2.85-3c0.11,0.13,0.17,0.26,0.19,0.39c0.02-0.26,0.03-0.43,0.03-0.45c0-0.12-0.08-0.23-0.2-0.26
		s-0.24,0.03-0.3,0.14c0,0.01-0.14,0.28-0.42,0.63c0.36-1.26,0.28-2.69,0.28-2.76c-0.01-0.14-0.13-0.25-0.28-0.25
		c-0.15,0.01-0.26,0.13-0.25,0.28c0,0.02,0.09,1.73-0.38,2.95c-0.26,0.66-0.83,1.3-1.3,1.75c0.12-0.4,0.27-0.96,0.46-1.71
		c0.27-1.08-0.01-2.34-0.36-3.34c0.02-0.09-0.02-0.19-0.09-0.25c-0.19-0.49-0.38-0.91-0.51-1.17l0,0c0.33-0.33,0.56-0.75,0.61-1.2
		c0.03-0.26,0.08-1.14-0.52-1.82c-0.23-0.25-0.6-0.54-1.19-0.64c0.16-0.13,0.3-0.28,0.42-0.44c0.9-0.08,1.64-0.72,1.88-1.56
		l1.59,0.22c0.19,1.1,1.15,1.95,2.31,1.95c1.3,0,2.35-1.05,2.35-2.35c0-1.3-1.05-2.35-2.35-2.35c-1.25,0-2.28,0.98-2.34,2.23
		l-1.47-0.24v-0.03c0-0.56-0.21-1.06-0.56-1.44c0.22-0.63,0.5-1.38,0.77-2.12c0.06,0.05,0.14,0.06,0.21,0.05
		c0.01,0,1.36-0.29,2.41,0.27C41.02,20.99,41.06,21,41.1,21c0.1,0,0.19-0.05,0.23-0.14c0.07-0.13,0.02-0.29-0.11-0.36
		c-1.08-0.57-2.36-0.39-2.69-0.33c0.5-1.33,0.95-2.48,0.96-2.51c0.05-0.14-0.01-0.29-0.15-0.34c-0.14-0.05-0.29,0.01-0.34,0.15
		c-0.02,0.04-0.08,0.21-0.19,0.48c-0.02-0.02-0.04-0.04-0.06-0.06c-0.11-0.09-0.31-0.18-0.6-0.06c-0.88,0.33-2.47,0.76-3.31-0.1
		c-0.23-0.24-0.33-0.44-0.29-0.57c0.08-0.21,0.56-0.39,0.98-0.43c1.14-0.11,1.72-1.12,2.22-2c0.33-0.57,0.64-1.11,1.05-1.38
		c0.13-0.09,0.27-0.14,0.43-0.17c0.8-0.12,1.25,0.15,1.81,0.49c0.55,0.33,1.21,0.74,2.34,0.81c-0.23,0.26-0.45,0.53-0.66,0.8
		c-0.26,0.33-0.51,0.66-0.74,0.97c-0.21,0.27-0.4,0.53-0.58,0.76c-0.61,0.78-0.74,1.67-0.35,2.39c0.4,0.74,1.27,1.13,2.33,1.03
		c0.5-0.04,0.97-0.17,1.4-0.33c1.36-0.52,2.29-1.44,2.34-1.49c0.1-0.1,0.1-0.27,0-0.37s-0.27-0.1-0.37,0
		c-0.01,0.01-0.87,0.85-2.1,1.35c-0.4,0.16-0.85,0.28-1.31,0.32c-0.84,0.08-1.52-0.21-1.82-0.76c-0.28-0.53-0.17-1.2,0.31-1.81
		c0.18-0.23,0.38-0.49,0.58-0.77c0.31-0.42,0.67-0.89,1.05-1.36c0.92-1.12,1.98-2.16,2.87-2.07c0.3,0.03,0.63,0.16,0.97,0.36
		c1.44,0.85,3.03,3,3,4.69c-0.02,1,0.22,1.88,0.45,2.72c0.32,1.18,0.62,2.29,0.32,3.75c-0.46,2.27-0.83,4.68-0.92,5.28
		c-0.04,0.02-0.08,0.04-0.13,0.06c-0.95,0.49-3.23,1.58-5.27,1.92c-0.15,0.01-0.3,0-0.45-0.01c0.19-0.44,0.35-0.92,0.47-1.44
		c0.27-1.2,0.24-2.16,0.24-2.2c-0.01-0.15-0.13-0.26-0.27-0.25c-0.15,0.01-0.26,0.13-0.25,0.28c0,0.03,0.08,2.63-1.27,4.47
		c-0.02-0.33-0.03-0.61-0.05-0.82c0.05-0.46,0.06-0.91,0.06-1.3c0-0.73-0.05-1.25-0.06-1.31c-0.02-0.14-0.14-0.25-0.29-0.23
		c-0.14,0.01-0.25,0.14-0.23,0.29c0,0.01,0.11,1.03,0.03,2.21c-0.08,1.11-0.29,1.98-0.62,2.57c-0.33,0.37-0.64,0.7-0.86,0.93
		c-0.17,0.14-0.31,0.27-0.45,0.37c0.95-1.84,0.57-3.88,0.55-3.99c-0.03-0.14-0.17-0.24-0.31-0.21c-0.14,0.03-0.24,0.17-0.21,0.31
		c0.01,0.03,0.39,2.15-0.65,3.9c0-0.02,0.01-0.04,0.01-0.06c-0.22,0.62-0.79,1.1-0.1,0.91c1.03-0.29,2.6-3.02,2.6-3.02l0.6-0.25
		L50,30.23l0.36-0.16c0,0-0.12-0.59,0.56-3.71C51.62,23.25,51.05,20.96,50.73,19.98z"/>
	<g>
		<path class="st1" d="M37.61,50.33c-0.15,0.59-0.51,1.13-0.99,1.5c-0.1,0.08-0.2,0.14-0.31,0.2c-0.1,0.05-0.2,0.1-0.3,0.14l0,0
			c-0.22,0.08-0.45,0.13-0.67,0.11c-0.04,0.1-0.09,0.21-0.14,0.31c0.03,0.02,0.07,0.05,0.12,0.08c-0.22-0.01-0.43-0.07-0.62-0.16
			c-0.02-0.01-0.03-0.01-0.04-0.02c0.06-0.11,0.12-0.23,0.17-0.35c0.1-0.24,0.17-0.5,0.22-0.76c0.02-0.13,0.04-0.25,0.06-0.38
			c0.01,0,0.03,0,0.04,0.01c0.01,0,0.01,0,0.01,0c0.01,0,0.01,0,0.02,0.01c0.02,0,0.04,0.01,0.06,0.02
			c0.02,0.01,0.05,0.01,0.07,0.02c0.03,0.01,0.06,0.03,0.1,0.05c0.01,0.01,0.02,0.01,0.05,0.01c0.05,0,0.11-0.02,0.18-0.05
			c-0.02,0.14-0.03,0.28-0.06,0.42c0.27-0.05,0.54-0.25,0.74-0.43c0.05-0.05,0.1-0.1,0.14-0.15c0-0.01,0.01-0.01,0.01-0.01
			c0.35-0.42,0.48-0.96,0.45-1.5c-0.02-0.29-0.1-0.59-0.21-0.86c-0.07-0.16-0.15-0.29-0.29-0.34c-0.04-0.02-0.08-0.03-0.12-0.03
			c-0.02,0-0.03-0.01-0.05-0.01c-0.22-0.01-0.49,0.03-0.7,0.16c0.02,0.15,0.04,0.31,0.06,0.48l0,0c-0.01,0.03-0.02,0.07-0.03,0.1
			c-0.01,0.01-0.01,0.02-0.02,0.03c0,0.01,0,0.01-0.01,0.01c-0.01,0.03-0.03,0.06-0.05,0.08c-0.02,0.03-0.04,0.06-0.06,0.09
			c-0.01,0.02-0.03,0.03-0.04,0.04l0,0c-0.08,0.08-0.17,0.13-0.27,0.17c-0.01-0.14-0.02-0.28-0.04-0.41
			c-0.02-0.24-0.05-0.46-0.08-0.67c-0.02-0.17-0.04-0.34-0.06-0.49c-0.01-0.07-0.02-0.14-0.02-0.21c-0.12,0.07-0.26,0.14-0.43,0.21
			c-0.05,0.02-0.09,0.04-0.14,0.06c0.05-0.06,0.1-0.12,0.15-0.18c0.2-0.21,0.45-0.37,0.72-0.48c0.07-0.03,0.14-0.05,0.21-0.08
			c0,0.11,0.01,0.24,0.02,0.4c0.17-0.06,0.35-0.1,0.52-0.12c0.08-0.01,0.17-0.01,0.25-0.01c0.03,0,0.07,0,0.11,0.01
			c0.2,0.01,0.4,0.06,0.57,0.17c0.3,0.18,0.46,0.49,0.59,0.81C37.71,48.95,37.77,49.67,37.61,50.33z"/>
		<path class="st0" d="M37.61,50.33c-0.15,0.59-0.51,1.13-0.99,1.5c-0.1,0.08-0.2,0.14-0.31,0.2c-0.1,0.05-0.2,0.1-0.3,0.14l0,0
			c-0.22,0.08-0.45,0.13-0.67,0.11c-0.16-0.01-0.31-0.05-0.46-0.12c-0.02-0.01-0.04-0.02-0.05-0.03c0.1-0.24,0.17-0.5,0.22-0.76
			c0.04,0,0.07,0.01,0.11,0.03c0.02,0.01,0.04,0.02,0.06,0.03c0.11,0.06,0.23,0.08,0.36,0.05c0.27-0.05,0.54-0.25,0.74-0.43
			c0.05-0.05,0.1-0.1,0.14-0.15c0-0.01,0.01-0.01,0.01-0.01c0.35-0.42,0.48-0.96,0.45-1.5c-0.02-0.29-0.1-0.59-0.21-0.86
			c-0.07-0.16-0.15-0.29-0.29-0.34c-0.04-0.02-0.08-0.03-0.12-0.03c-0.02,0-0.03-0.01-0.05-0.01c-0.22-0.01-0.49,0.03-0.7,0.16
			c-0.06,0.03-0.12,0.08-0.17,0.13l0,0h-0.01c-0.03,0.03-0.06,0.06-0.08,0.1c-0.03,0.05-0.05,0.1-0.06,0.15
			c-0.01,0.03-0.02,0.07-0.04,0.1c-0.01,0.01-0.02,0.03-0.02,0.04c-0.01,0.01-0.02,0.03-0.03,0.04c-0.01,0.01-0.02,0.02-0.03,0.03
			s-0.01,0.01-0.02,0.02c-0.02-0.24-0.05-0.46-0.08-0.67c-0.02-0.17-0.04-0.34-0.06-0.49c0.11-0.08,0.23-0.15,0.35-0.21
			c0.05-0.02,0.1-0.05,0.16-0.06l0,0c0.17-0.06,0.35-0.1,0.52-0.12c0.08-0.01,0.17-0.01,0.25-0.01c0.03,0,0.07,0,0.11,0.01
			c0.2,0.01,0.4,0.06,0.57,0.17c0.3,0.18,0.46,0.49,0.59,0.81C37.71,48.95,37.77,49.67,37.61,50.33z"/>
	</g>
	<path class="st1" d="M35.36,49.02c0-0.08,0-0.16,0-0.24c0-0.11-0.01-0.22-0.01-0.33v-0.03l0,0c-0.01-0.31-0.04-0.61-0.09-0.89
		c-0.02-0.13-0.05-0.27-0.08-0.39c-0.12-0.44-0.31-0.77-0.61-0.88c-0.01-0.01-0.03-0.01-0.04-0.02c-1.22-0.13-2.3-0.2-3.25-0.21
		c-0.03,0-0.06,0-0.09,0c-4.2-0.03-5.91,0.98-5.95,1.41c-0.18,1.71,1.67,3.88,2.96,5.6c1.29,1.71,4.07,1.25,4.07,1.25
		c1.24-0.37,1.99-1.04,2.43-1.8c0.07-0.11,0.13-0.23,0.18-0.34c0.12-0.25,0.21-0.5,0.28-0.76c0.03-0.13,0.06-0.25,0.09-0.38
		c0.13-0.65,0.13-1.25,0.13-1.68v-0.21C35.36,49.1,35.36,49.06,35.36,49.02z M29.86,46.53c0.8-0.01,1.5-0.04,2.12-0.06
		c0.28-0.01,0.54-0.02,0.79-0.03c0.8-0.02,1.43-0.02,1.78,0.07c0.13,0.03,0.22,0.08,0.27,0.13c0.02,0.02,0.07,0.08,0.06,0.22
		c-0.07,0.11-0.2,0.21-0.39,0.3c-0.17,0.09-0.38,0.17-0.63,0.24c-0.82,0.24-2.05,0.4-3.54,0.44c-2.29,0.07-4.19-0.42-4.81-0.6
		C25.71,46.79,26.58,46.58,29.86,46.53z M35.09,51c-0.01,0.13-0.03,0.25-0.06,0.38c-0.05,0.26-0.12,0.52-0.22,0.76
		c-0.05,0.12-0.1,0.24-0.17,0.35c-0.16,0.29-0.38,0.54-0.65,0.76c-0.88,0.68-1.99,0.97-3.14,0.83c-1.09-0.14-2.09-0.66-2.73-1.44
		c-1.59-1.93-2.61-3.45-2.66-4.84c0.69,0.2,2.34,0.6,4.4,0.6c0.16,0,0.32,0,0.48-0.01c1.85-0.06,3.03-0.26,3.78-0.5
		c0.07-0.02,0.13-0.05,0.19-0.07c0.05-0.02,0.1-0.03,0.14-0.06c0.17-0.07,0.32-0.14,0.43-0.21c0.01,0.07,0.01,0.14,0.02,0.21
		c0.02,0.15,0.04,0.31,0.06,0.49c0.03,0.21,0.06,0.43,0.08,0.67c0.02,0.13,0.03,0.27,0.04,0.41C35.14,49.86,35.15,50.44,35.09,51z"
		/>
	<g>
		<path class="st0" d="M35.57,48.78c-0.01,0.03-0.02,0.07-0.03,0.1c-0.01,0.01-0.01,0.02-0.02,0.03c0,0.01,0,0.01-0.01,0.01
			c-0.01,0.03-0.03,0.06-0.05,0.08c-0.02,0.03-0.04,0.06-0.06,0.09c-0.01,0.02-0.03,0.03-0.04,0.04c0-0.04,0-0.08,0-0.12
			c0-0.08,0-0.16,0-0.24c0-0.11-0.01-0.22-0.01-0.33v-0.03h-0.01c-0.03,0.03-0.06,0.06-0.08,0.1c-0.03,0.05-0.05,0.1-0.06,0.15
			c-0.01,0.03-0.02,0.07-0.04,0.1c-0.01,0.01-0.02,0.03-0.02,0.04c-0.01,0.01-0.02,0.03-0.03,0.04c-0.01,0.01-0.02,0.02-0.03,0.03
			s-0.01,0.01-0.02,0.02c0.02,0.13,0.03,0.27,0.04,0.41c0.05,0.55,0.06,1.13,0,1.69c0.01,0,0.03,0,0.04,0.01c0.01,0,0.01,0,0.01,0
			c0.01,0,0.01,0,0.02,0.01c0.02,0,0.04,0.01,0.06,0.02c0.02,0.01,0.05,0.01,0.07,0.02c0.03,0.01,0.06,0.03,0.1,0.05
			c0.01,0.01,0.02,0.01,0.05,0.01c0.05,0,0.11-0.02,0.18-0.05C35.71,50.29,35.65,49.49,35.57,48.78z M35.57,48.78
			c-0.01,0.03-0.02,0.07-0.03,0.1c-0.01,0.01-0.01,0.02-0.02,0.03c0,0.01,0,0.01-0.01,0.01c-0.01,0.03-0.03,0.06-0.05,0.08
			c-0.02,0.03-0.04,0.06-0.06,0.09c-0.01,0.02-0.03,0.03-0.04,0.04c0-0.04,0-0.08,0-0.12c0-0.08,0-0.16,0-0.24
			c0-0.11-0.01-0.22-0.01-0.33v-0.03h-0.01c-0.03,0.03-0.06,0.06-0.08,0.1c-0.03,0.05-0.05,0.1-0.06,0.15
			c-0.01,0.03-0.02,0.07-0.04,0.1c-0.01,0.01-0.02,0.03-0.02,0.04c-0.01,0.01-0.02,0.03-0.03,0.04c-0.01,0.01-0.02,0.02-0.03,0.03
			s-0.01,0.01-0.02,0.02c0.02,0.13,0.03,0.27,0.04,0.41c0.05,0.55,0.06,1.13,0,1.69c0.01,0,0.03,0,0.04,0.01c0.01,0,0.01,0,0.01,0
			c0.01,0,0.01,0,0.02,0.01c0.02,0,0.04,0.01,0.06,0.02c0.02,0.01,0.05,0.01,0.07,0.02c0.03,0.01,0.06,0.03,0.1,0.05
			c0.01,0.01,0.02,0.01,0.05,0.01c0.05,0,0.11-0.02,0.18-0.05C35.71,50.29,35.65,49.49,35.57,48.78z M35.57,48.78
			c-0.01,0.03-0.02,0.07-0.03,0.1c-0.01,0.01-0.01,0.02-0.02,0.03c0,0.01,0,0.01-0.01,0.01c-0.01,0.03-0.03,0.06-0.05,0.08
			c-0.02,0.03-0.04,0.06-0.06,0.09c-0.01,0.02-0.03,0.03-0.04,0.04c0-0.04,0-0.08,0-0.12c0-0.08,0-0.16,0-0.24
			c0-0.11-0.01-0.22-0.01-0.33v-0.03h-0.01c-0.03,0.03-0.06,0.06-0.08,0.1c-0.03,0.05-0.05,0.1-0.06,0.15
			c-0.01,0.03-0.02,0.07-0.04,0.1c-0.01,0.01-0.02,0.03-0.02,0.04c-0.01,0.01-0.02,0.03-0.03,0.04c-0.01,0.01-0.02,0.02-0.03,0.03
			s-0.01,0.01-0.02,0.02c0.02,0.13,0.03,0.27,0.04,0.41c0.05,0.55,0.06,1.13,0,1.69c0.01,0,0.03,0,0.04,0.01c0.01,0,0.01,0,0.01,0
			c0.01,0,0.01,0,0.02,0.01c0.02,0,0.04,0.01,0.06,0.02c0.02,0.01,0.05,0.01,0.07,0.02c0.03,0.01,0.06,0.03,0.1,0.05
			c0.01,0.01,0.02,0.01,0.05,0.01c0.05,0,0.11-0.02,0.18-0.05C35.71,50.29,35.65,49.49,35.57,48.78z M35.57,48.78
			c-0.01,0.03-0.02,0.07-0.03,0.1c-0.01,0.01-0.01,0.02-0.02,0.03c0,0.01,0,0.01-0.01,0.01c-0.01,0.03-0.03,0.06-0.05,0.08
			c-0.02,0.03-0.04,0.06-0.06,0.09c-0.01,0.02-0.03,0.03-0.04,0.04c0-0.04,0-0.08,0-0.12c0-0.08,0-0.16,0-0.24
			c0-0.11-0.01-0.22-0.01-0.33v-0.03h-0.01c-0.03,0.03-0.06,0.06-0.08,0.1c-0.03,0.05-0.05,0.1-0.06,0.15
			c-0.01,0.03-0.02,0.07-0.04,0.1c-0.01,0.01-0.02,0.03-0.02,0.04c-0.01,0.01-0.02,0.03-0.03,0.04c-0.01,0.01-0.02,0.02-0.03,0.03
			s-0.01,0.01-0.02,0.02c0.02,0.13,0.03,0.27,0.04,0.41c0.05,0.55,0.06,1.13,0,1.69c0.01,0,0.03,0,0.04,0.01c0.01,0,0.01,0,0.01,0
			c0.01,0,0.01,0,0.02,0.01c0.02,0,0.04,0.01,0.06,0.02c0.02,0.01,0.05,0.01,0.07,0.02c0.03,0.01,0.06,0.03,0.1,0.05
			c0.01,0.01,0.02,0.01,0.05,0.01c0.05,0,0.11-0.02,0.18-0.05C35.71,50.29,35.65,49.49,35.57,48.78z M35.57,48.78
			c-0.01,0.03-0.02,0.07-0.03,0.1c-0.01,0.01-0.01,0.02-0.02,0.03c0,0.01,0,0.01-0.01,0.01c-0.01,0.03-0.03,0.06-0.05,0.08
			c-0.02,0.03-0.04,0.06-0.06,0.09c-0.01,0.02-0.03,0.03-0.04,0.04c0-0.04,0-0.08,0-0.12c0-0.08,0-0.16,0-0.24
			c0-0.11-0.01-0.22-0.01-0.33v-0.03h-0.01c-0.03,0.03-0.06,0.06-0.08,0.1c-0.03,0.05-0.05,0.1-0.06,0.15
			c-0.01,0.03-0.02,0.07-0.04,0.1c-0.01,0.01-0.02,0.03-0.02,0.04c-0.01,0.01-0.02,0.03-0.03,0.04c-0.01,0.01-0.02,0.02-0.03,0.03
			s-0.01,0.01-0.02,0.02c0.02,0.13,0.03,0.27,0.04,0.41c0.05,0.55,0.06,1.13,0,1.69c0.01,0,0.03,0,0.04,0.01c0.01,0,0.01,0,0.01,0
			c0.01,0,0.01,0,0.02,0.01c0.02,0,0.04,0.01,0.06,0.02c0.02,0.01,0.05,0.01,0.07,0.02c0.03,0.01,0.06,0.03,0.1,0.05
			c0.01,0.01,0.02,0.01,0.05,0.01c0.05,0,0.11-0.02,0.18-0.05C35.71,50.29,35.65,49.49,35.57,48.78z M35.57,48.78
			c-0.01,0.03-0.02,0.07-0.03,0.1c-0.01,0.01-0.01,0.02-0.02,0.03c0,0.01,0,0.01-0.01,0.01c-0.01,0.03-0.03,0.06-0.05,0.08
			c-0.02,0.03-0.04,0.06-0.06,0.09c-0.01,0.02-0.03,0.03-0.04,0.04c0-0.04,0-0.08,0-0.12c0-0.08,0-0.16,0-0.24
			c0-0.11-0.01-0.22-0.01-0.33v-0.03h-0.01c-0.03,0.03-0.06,0.06-0.08,0.1c-0.03,0.05-0.05,0.1-0.06,0.15
			c-0.01,0.03-0.02,0.07-0.04,0.1c-0.01,0.01-0.02,0.03-0.02,0.04c-0.01,0.01-0.02,0.03-0.03,0.04c-0.01,0.01-0.02,0.02-0.03,0.03
			s-0.01,0.01-0.02,0.02c0.02,0.13,0.03,0.27,0.04,0.41c0.05,0.55,0.06,1.13,0,1.69c0.01,0,0.03,0,0.04,0.01c0.01,0,0.01,0,0.01,0
			c0.01,0,0.01,0,0.02,0.01c0.02,0,0.04,0.01,0.06,0.02c0.02,0.01,0.05,0.01,0.07,0.02c0.03,0.01,0.06,0.03,0.1,0.05
			c0.01,0.01,0.02,0.01,0.05,0.01c0.05,0,0.11-0.02,0.18-0.05C35.71,50.29,35.65,49.49,35.57,48.78z M35.57,48.78
			c-0.01,0.03-0.02,0.07-0.03,0.1c-0.01,0.01-0.01,0.02-0.02,0.03c0,0.01,0,0.01-0.01,0.01c-0.01,0.03-0.03,0.06-0.05,0.08
			c-0.02,0.03-0.04,0.06-0.06,0.09c-0.01,0.02-0.03,0.03-0.04,0.04c0-0.04,0-0.08,0-0.12c0-0.08,0-0.16,0-0.24
			c0-0.11-0.01-0.22-0.01-0.33v-0.03h-0.01c-0.03,0.03-0.06,0.06-0.08,0.1c-0.03,0.05-0.05,0.1-0.06,0.15
			c-0.01,0.03-0.02,0.07-0.04,0.1c-0.01,0.01-0.02,0.03-0.02,0.04c-0.01,0.01-0.02,0.03-0.03,0.04c-0.01,0.01-0.02,0.02-0.03,0.03
			s-0.01,0.01-0.02,0.02c0.02,0.13,0.03,0.27,0.04,0.41c0.05,0.55,0.06,1.13,0,1.69c0.01,0,0.03,0,0.04,0.01c0.01,0,0.01,0,0.01,0
			c0.01,0,0.01,0,0.02,0.01c0.02,0,0.04,0.01,0.06,0.02c0.02,0.01,0.05,0.01,0.07,0.02c0.03,0.01,0.06,0.03,0.1,0.05
			c0.01,0.01,0.02,0.01,0.05,0.01c0.05,0,0.11-0.02,0.18-0.05C35.71,50.29,35.65,49.49,35.57,48.78z M35.57,48.78
			c-0.01,0.03-0.02,0.07-0.03,0.1c-0.01,0.01-0.01,0.02-0.02,0.03c0,0.01,0,0.01-0.01,0.01c-0.01,0.03-0.03,0.06-0.05,0.08
			c-0.02,0.03-0.04,0.06-0.06,0.09c-0.01,0.02-0.03,0.03-0.04,0.04c0-0.04,0-0.08,0-0.12c0-0.08,0-0.16,0-0.24
			c0-0.11-0.01-0.22-0.01-0.33v-0.03h-0.01c-0.03,0.03-0.06,0.06-0.08,0.1c-0.03,0.05-0.05,0.1-0.06,0.15
			c-0.01,0.03-0.02,0.07-0.04,0.1c-0.01,0.01-0.02,0.03-0.02,0.04c-0.01,0.01-0.02,0.03-0.03,0.04c-0.01,0.01-0.02,0.02-0.03,0.03
			s-0.01,0.01-0.02,0.02c0.02,0.13,0.03,0.27,0.04,0.41c0.05,0.55,0.06,1.13,0,1.69c0.01,0,0.03,0,0.04,0.01c0.01,0,0.01,0,0.01,0
			c0.01,0,0.01,0,0.02,0.01c0.02,0,0.04,0.01,0.06,0.02c0.02,0.01,0.05,0.01,0.07,0.02c0.03,0.01,0.06,0.03,0.1,0.05
			c0.01,0.01,0.02,0.01,0.05,0.01c0.05,0,0.11-0.02,0.18-0.05C35.71,50.29,35.65,49.49,35.57,48.78z M57.41,48.08
			c-0.32-0.88-0.94-1.26-1.54-2.57c-0.78-1.69-5.02-12.13-5.35-12.88l0.11-1.52l0.1-1.43c0.14-0.92,0.47-2.95,0.86-4.89
			c0.32-1.59-0.01-2.82-0.33-4c-0.23-0.85-0.44-1.65-0.43-2.57c0.04-1.89-1.59-4.13-3.17-5.1c-0.44-0.27-0.87-0.44-1.27-0.48
			c-0.83-0.09-1.7,0.5-2.5,1.32c-1.29,0.03-1.93-0.36-2.56-0.74c-0.61-0.37-1.18-0.71-2.18-0.57c-0.36,0.05-0.65,0.21-0.9,0.44
			c-0.4,0.35-0.69,0.87-0.98,1.37c-0.48,0.85-0.94,1.65-1.8,1.73c-0.2,0.02-1.21,0.15-1.44,0.79c-0.13,0.35,0.01,0.74,0.41,1.15
			c1.05,1.09,2.89,0.62,3.9,0.24c0.03-0.01,0.05-0.02,0.06-0.02c0.04,0.08,0.05,0.31,0.02,0.5c-0.01,0.04,0,0.08,0.01,0.12
			c-0.39,1.02-0.91,2.38-1.28,3.45c-0.2-0.13-0.42-0.23-0.66-0.28c-0.16-0.04-0.33-0.06-0.5-0.06c-1.19,0-2.15,0.96-2.15,2.15
			c0,0.67,0.31,1.27,0.8,1.66c0.25,0.21,0.55,0.36,0.87,0.43c-0.22,0.2-0.47,0.38-0.77,0.52c0,0-0.01,0-0.01,0.01
			c-0.62,0.28-1.34,0.6-1.94,1.1c-0.7,0.58-1.24,1.41-1.21,2.67c0.05,2.16,0.89,5.07,1.77,6.11c0.05,0.06,0.12,0.09,0.2,0.09
			c0.02,0,0.04,0,0.06-0.01c0.1-0.02,0.17-0.1,0.19-0.2c0.22-1.03,0.5-1.75,0.7-2.2c0.16,0.49,0.42,1.14,0.8,1.52
			c0.08,0.07,0.18,0.1,0.28,0.06c0.1-0.04,0.16-0.13,0.17-0.23c0.06-1.03,0.84-2.44,1.31-3.21c0.01-0.02,0.02-0.03,0.03-0.05
			c0.02,0.08,0.05,0.15,0.07,0.23c0.21,0.78,0.33,1.65,0.15,2.39c-0.49,1.97-0.74,2.55-0.74,2.56c-0.05,0.11-0.02,0.24,0.08,0.31
			c0.05,0.04,0.11,0.06,0.17,0.06c0.05,0,0.11-0.02,0.16-0.05c0.05-0.04,0.96-0.72,1.63-1.63c0.01-0.01,0.02-0.01,0.03-0.02
			c0.4-0.29,0.72-0.61,0.96-0.89c-0.05,0.32-0.12,0.69-0.24,1.06c-0.03,0.12,0.01,0.24,0.12,0.3c0.04,0.03,0.09,0.04,0.14,0.04
			c0.07,0,0.13-0.03,0.18-0.08c0.03-0.03,0.06-0.06,0.09-0.09c0.12-0.04,0.42-0.17,1.01-0.63c0.03,0.24,0.06,0.58,0.06,1.01l0,0
			c0,0.91-0.12,2.22-0.61,3.83c-0.32,1.04-0.55,3.11-0.7,6.14c-0.05,1-0.09,2.1-0.12,3.31c0,0.13-0.01,0.25-0.01,0.38
			c-0.03,1.03-0.04,2.03-0.05,2.92c-0.03,0.35-0.13,0.77-0.33,0.95c-0.08,0.07-0.17,0.09-0.28,0.07c-0.79-0.14-2.32-1.13-3.18-1.72
			c-0.14-0.09-0.26-0.18-0.36-0.25c-0.04-0.03-0.08-0.06-0.12-0.08c0.05-0.1,0.1-0.2,0.14-0.31c0.1-0.26,0.18-0.53,0.23-0.8
			c0.03-0.14,0.05-0.28,0.06-0.42c0.09-0.77,0.03-1.57-0.05-2.28l0,0c-0.02-0.17-0.04-0.33-0.06-0.48
			c-0.01-0.04-0.01-0.09-0.02-0.13c-0.03-0.25-0.06-0.49-0.08-0.69l0,0c-0.01-0.15-0.02-0.29-0.02-0.4c0-0.03,0-0.07,0.01-0.1
			c0.03-0.29-0.03-0.52-0.2-0.69c-0.14-0.15-0.34-0.25-0.61-0.31c-0.54-0.12-1.38-0.09-2.63-0.04c-0.61,0.02-1.31,0.05-2.11,0.06
			c-1.01,0.02-1.83,0.04-2.49,0.1c-1.74,0.14-2.36,0.48-2.42,1.31c-0.1,1.24,0.33,2.6,2.77,5.56c0.91,1.1,2.29,1.67,3.68,1.67
			c0.31,0,0.63-0.03,0.94-0.09l0.62,0.64l2.08,2.14l0.31,0.32l0.01,0.01c0.15,0.12,2.96,2.35,5.03,2.35c0.52,0,1.05-0.1,1.38-0.48
			c0.03-0.04,0.06-0.08,0.09-0.13c0.31-0.48,0.61-1.17,0.89-1.93c0.89-2.48,1.54-5.81,1.57-6l0.12-0.26l0.46-0.18
			c-0.9,3.01-1.6,6.02-1.65,6.25l-0.03,0.18l6,0.13l0.38,0.01l0.35,0.01l5.3,0.11L56,57.74l0.02-0.14c0.01-0.03,0.47-3.49,0.63-6.14
			C56.74,49.81,57.91,49.47,57.41,48.08z M36.86,30.46L36.86,30.46c-0.09-0.18-0.15-0.29-0.16-0.31c-0.07-0.13-0.23-0.17-0.36-0.1
			s-0.17,0.23-0.1,0.36c0,0.01,0.08,0.15,0.2,0.39c0.12,0.25,0.29,0.62,0.45,1.04c-0.31,0.48-1.22,1.93-1.54,3.22
			c-0.32-0.62-0.48-1.41-0.49-1.42c-0.02-0.1-0.1-0.18-0.2-0.21c-0.09-0.02-0.17,0.01-0.24,0.06c-0.01,0.01-0.02,0.02-0.03,0.04
			c0,0-0.01,0.01-0.02,0.03c-0.1,0.15-0.55,0.87-0.93,2.34c-0.72-1.28-1.29-3.74-1.33-5.3c-0.02-0.7,0.17-1.24,0.47-1.67
			c0.55-0.79,1.5-1.21,2.37-1.6c0.32-0.14,0.59-0.32,0.82-0.52c0.16-0.13,0.3-0.28,0.42-0.44c0.9-0.08,1.64-0.72,1.88-1.56
			l1.59,0.22c0.19,1.1,1.15,1.95,2.31,1.95c1.3,0,2.35-1.05,2.35-2.35c0-1.3-1.05-2.35-2.35-2.35c-1.25,0-2.28,0.98-2.34,2.23
			l-1.47-0.24v-0.03c0-0.56-0.21-1.06-0.56-1.44c0.22-0.63,0.5-1.38,0.77-2.12c0.06,0.05,0.14,0.06,0.21,0.05
			c0.01,0,1.36-0.29,2.41,0.27c0.03-0.01,0.07,0,0.11,0c0.1,0,0.19-0.05,0.23-0.14c0.07-0.13,0.02-0.29-0.11-0.36
			c-1.08-0.57-2.36-0.39-2.69-0.33c0.5-1.33,0.95-2.48,0.96-2.51c0.05-0.14-0.01-0.29-0.15-0.34c-0.14-0.05-0.29,0.01-0.34,0.15
			c-0.02,0.04-0.08,0.21-0.19,0.48c-0.02-0.02-0.04-0.04-0.06-0.06c-0.11-0.09-0.31-0.18-0.6-0.06c-0.88,0.33-2.47,0.76-3.31-0.1
			c-0.23-0.24-0.33-0.44-0.29-0.57c0.08-0.21,0.56-0.39,0.98-0.43c1.14-0.11,1.72-1.12,2.22-2c0.33-0.57,0.64-1.11,1.05-1.38
			c0.13-0.09,0.27-0.14,0.43-0.17c0.8-0.12,1.25,0.15,1.81,0.49c0.55,0.33,1.21,0.74,2.34,0.81c-0.23,0.26-0.45,0.53-0.66,0.8
			c-0.26,0.33-0.51,0.66-0.74,0.97c-0.21,0.27-0.4,0.53-0.58,0.76c-0.61,0.78-0.74,1.67-0.35,2.39c0.4,0.74,1.27,1.13,2.33,1.03
			c0.5-0.04,0.97-0.17,1.4-0.33c1.36-0.52,2.29-1.44,2.34-1.49c0.1-0.1,0.1-0.27,0-0.37s-0.27-0.1-0.37,0
			c-0.01,0.01-0.87,0.85-2.1,1.35c-0.4,0.16-0.85,0.28-1.31,0.32c-0.84,0.08-1.52-0.21-1.82-0.76c-0.28-0.53-0.17-1.2,0.31-1.81
			c0.18-0.23,0.38-0.49,0.58-0.77c0.31-0.42,0.67-0.89,1.05-1.36c0.92-1.12,1.98-2.16,2.87-2.07c0.3,0.03,0.63,0.16,0.97,0.36
			c1.44,0.85,3.03,3,3,4.69c-0.02,1,0.22,1.88,0.45,2.72c0.32,1.18,0.62,2.29,0.32,3.75c-0.46,2.27-0.83,4.68-0.92,5.28
			c-0.04,0.02-0.08,0.04-0.13,0.06c-0.95,0.49-3.23,1.58-5.27,1.92c-0.15,0.01-0.3,0-0.45-0.01c0.19-0.44,0.35-0.92,0.47-1.44
			c0.27-1.2,0.24-2.16,0.24-2.2c-0.01-0.15-0.13-0.26-0.27-0.25c-0.15,0.01-0.26,0.13-0.25,0.28c0,0.03,0.08,2.63-1.27,4.47
			c-0.07,0.09-0.14,0.18-0.21,0.27c0.08-0.36,0.13-0.73,0.16-1.09c0.05-0.46,0.06-0.91,0.06-1.3c0-0.73-0.05-1.25-0.06-1.31
			c-0.02-0.14-0.14-0.25-0.29-0.23c-0.14,0.01-0.25,0.14-0.23,0.29c0,0.01,0.11,1.03,0.03,2.21c-0.08,1.11-0.29,1.98-0.62,2.57
			c-0.33,0.37-0.64,0.7-0.86,0.93c-0.17,0.14-0.31,0.27-0.45,0.37c0.95-1.84,0.57-3.88,0.55-3.99c-0.03-0.14-0.17-0.24-0.31-0.21
			c-0.14,0.03-0.24,0.17-0.21,0.31c0.01,0.03,0.39,2.15-0.65,3.9c0-0.02,0.01-0.04,0.01-0.06c0.03-0.21,0.05-0.39,0.06-0.55
			c0.02-0.26,0.03-0.43,0.03-0.45c0-0.12-0.08-0.23-0.2-0.26s-0.24,0.03-0.3,0.14c0,0.01-0.14,0.28-0.42,0.63
			c0.36-1.26,0.28-2.69,0.28-2.76c-0.01-0.14-0.13-0.25-0.28-0.25c-0.15,0.01-0.26,0.13-0.25,0.28c0,0.02,0.09,1.73-0.38,2.95
			c-0.26,0.66-0.83,1.3-1.3,1.75c0.12-0.4,0.27-0.96,0.46-1.71c0.27-1.08-0.01-2.34-0.36-3.34c0.02-0.09-0.02-0.19-0.09-0.25
			C37.19,31.14,37,30.72,36.86,30.46z M30.86,54.07c-1.09-0.14-2.09-0.66-2.73-1.44c-1.59-1.93-2.61-3.45-2.66-4.84
			c0.69,0.2,2.34,0.6,4.4,0.6c0.16,0,0.32,0,0.48-0.01c1.85-0.06,3.03-0.26,3.78-0.5c0.07-0.02,0.13-0.05,0.19-0.07
			c0.05-0.02,0.1-0.03,0.14-0.06c0.17-0.07,0.32-0.14,0.43-0.21c0.01,0.07,0.01,0.14,0.02,0.21c0.02,0.15,0.04,0.31,0.06,0.49
			c0.03,0.21,0.06,0.43,0.08,0.67c0.02,0.13,0.03,0.27,0.04,0.41c0.05,0.55,0.06,1.13,0,1.69c-0.01,0.13-0.03,0.25-0.06,0.38
			c-0.05,0.26-0.12,0.52-0.22,0.76c-0.05,0.12-0.1,0.24-0.17,0.35c-0.16,0.29-0.38,0.54-0.65,0.76C33.12,53.92,32,54.21,30.86,54.07
			z M32.77,46.44c0.8-0.02,1.43-0.02,1.78,0.07c0.13,0.03,0.22,0.08,0.27,0.13c0.02,0.02,0.07,0.08,0.06,0.22
			c-0.07,0.11-0.2,0.21-0.39,0.3c-0.17,0.09-0.38,0.17-0.63,0.24c-0.82,0.24-2.05,0.4-3.54,0.44c-2.29,0.07-4.19-0.42-4.81-0.6
			c0.19-0.46,1.07-0.67,4.35-0.72c0.8-0.01,1.5-0.04,2.12-0.06C32.26,46.46,32.52,46.45,32.77,46.44z M35.57,48.78
			c-0.01,0.03-0.02,0.07-0.03,0.1c-0.01,0.01-0.01,0.02-0.02,0.03c0,0.01,0,0.01-0.01,0.01c-0.01,0.03-0.03,0.06-0.05,0.08
			c-0.02,0.03-0.04,0.06-0.06,0.09c-0.01,0.02-0.03,0.03-0.04,0.04c0-0.04,0-0.08,0-0.12c0-0.08,0-0.16,0-0.24
			c0-0.11-0.01-0.22-0.01-0.33v-0.03h-0.01c-0.03,0.03-0.06,0.06-0.08,0.1c-0.03,0.05-0.05,0.1-0.06,0.15
			c-0.01,0.03-0.02,0.07-0.04,0.1c-0.01,0.01-0.02,0.03-0.02,0.04c-0.01,0.01-0.02,0.03-0.03,0.04c-0.01,0.01-0.02,0.02-0.03,0.03
			s-0.01,0.01-0.02,0.02c0.02,0.13,0.03,0.27,0.04,0.41c0.05,0.55,0.06,1.13,0,1.69c0.01,0,0.03,0,0.04,0.01c0.01,0,0.01,0,0.01,0
			c0.01,0,0.01,0,0.02,0.01c0.02,0,0.04,0.01,0.06,0.02c0.02,0.01,0.05,0.01,0.07,0.02c0.03,0.01,0.06,0.03,0.1,0.05
			c0.01,0.01,0.02,0.01,0.05,0.01c0.05,0,0.11-0.02,0.18-0.05C35.71,50.29,35.65,49.49,35.57,48.78z M35.57,48.78
			c-0.01,0.03-0.02,0.07-0.03,0.1c-0.01,0.01-0.01,0.02-0.02,0.03c0,0.01,0,0.01-0.01,0.01c-0.01,0.03-0.03,0.06-0.05,0.08
			c-0.02,0.03-0.04,0.06-0.06,0.09c-0.01,0.02-0.03,0.03-0.04,0.04c0-0.04,0-0.08,0-0.12c0-0.08,0-0.16,0-0.24
			c0-0.11-0.01-0.22-0.01-0.33v-0.03h-0.01c-0.03,0.03-0.06,0.06-0.08,0.1c-0.03,0.05-0.05,0.1-0.06,0.15
			c-0.01,0.03-0.02,0.07-0.04,0.1c-0.01,0.01-0.02,0.03-0.02,0.04c-0.01,0.01-0.02,0.03-0.03,0.04c-0.01,0.01-0.02,0.02-0.03,0.03
			s-0.01,0.01-0.02,0.02c0.02,0.13,0.03,0.27,0.04,0.41c0.05,0.55,0.06,1.13,0,1.69c0.01,0,0.03,0,0.04,0.01c0.01,0,0.01,0,0.01,0
			c0.01,0,0.01,0,0.02,0.01c0.02,0,0.04,0.01,0.06,0.02c0.02,0.01,0.05,0.01,0.07,0.02c0.03,0.01,0.06,0.03,0.1,0.05
			c0.01,0.01,0.02,0.01,0.05,0.01c0.05,0,0.11-0.02,0.18-0.05C35.71,50.29,35.65,49.49,35.57,48.78z M35.57,48.78
			c-0.01,0.03-0.02,0.07-0.03,0.1c-0.01,0.01-0.01,0.02-0.02,0.03c0,0.01,0,0.01-0.01,0.01c-0.01,0.03-0.03,0.06-0.05,0.08
			c-0.02,0.03-0.04,0.06-0.06,0.09c-0.01,0.02-0.03,0.03-0.04,0.04c0-0.04,0-0.08,0-0.12c0-0.08,0-0.16,0-0.24
			c0-0.11-0.01-0.22-0.01-0.33v-0.03h-0.01c-0.03,0.03-0.06,0.06-0.08,0.1c-0.03,0.05-0.05,0.1-0.06,0.15
			c-0.01,0.03-0.02,0.07-0.04,0.1c-0.01,0.01-0.02,0.03-0.02,0.04c-0.01,0.01-0.02,0.03-0.03,0.04c-0.01,0.01-0.02,0.02-0.03,0.03
			s-0.01,0.01-0.02,0.02c0.02,0.13,0.03,0.27,0.04,0.41c0.05,0.55,0.06,1.13,0,1.69c0.01,0,0.03,0,0.04,0.01c0.01,0,0.01,0,0.01,0
			c0.01,0,0.01,0,0.02,0.01c0.02,0,0.04,0.01,0.06,0.02c0.02,0.01,0.05,0.01,0.07,0.02c0.03,0.01,0.06,0.03,0.1,0.05
			c0.01,0.01,0.02,0.01,0.05,0.01c0.05,0,0.11-0.02,0.18-0.05C35.71,50.29,35.65,49.49,35.57,48.78z M35.57,48.78
			c-0.01,0.03-0.02,0.07-0.03,0.1c-0.01,0.01-0.01,0.02-0.02,0.03c0,0.01,0,0.01-0.01,0.01c-0.01,0.03-0.03,0.06-0.05,0.08
			c-0.02,0.03-0.04,0.06-0.06,0.09c-0.01,0.02-0.03,0.03-0.04,0.04c0-0.04,0-0.08,0-0.12c0-0.08,0-0.16,0-0.24
			c0-0.11-0.01-0.22-0.01-0.33v-0.03h-0.01c-0.03,0.03-0.06,0.06-0.08,0.1c-0.03,0.05-0.05,0.1-0.06,0.15
			c-0.01,0.03-0.02,0.07-0.04,0.1c-0.01,0.01-0.02,0.03-0.02,0.04c-0.01,0.01-0.02,0.03-0.03,0.04c-0.01,0.01-0.02,0.02-0.03,0.03
			s-0.01,0.01-0.02,0.02c0.02,0.13,0.03,0.27,0.04,0.41c0.05,0.55,0.06,1.13,0,1.69c0.01,0,0.03,0,0.04,0.01c0.01,0,0.01,0,0.01,0
			c0.01,0,0.01,0,0.02,0.01c0.02,0,0.04,0.01,0.06,0.02c0.02,0.01,0.05,0.01,0.07,0.02c0.03,0.01,0.06,0.03,0.1,0.05
			c0.01,0.01,0.02,0.01,0.05,0.01c0.05,0,0.11-0.02,0.18-0.05C35.71,50.29,35.65,49.49,35.57,48.78z M35.57,48.78
			c-0.01,0.03-0.02,0.07-0.03,0.1c-0.01,0.01-0.01,0.02-0.02,0.03c0,0.01,0,0.01-0.01,0.01c-0.01,0.03-0.03,0.06-0.05,0.08
			c-0.02,0.03-0.04,0.06-0.06,0.09c-0.01,0.02-0.03,0.03-0.04,0.04c0-0.04,0-0.08,0-0.12c0-0.08,0-0.16,0-0.24
			c0-0.11-0.01-0.22-0.01-0.33v-0.03h-0.01c-0.03,0.03-0.06,0.06-0.08,0.1c-0.03,0.05-0.05,0.1-0.06,0.15
			c-0.01,0.03-0.02,0.07-0.04,0.1c-0.01,0.01-0.02,0.03-0.02,0.04c-0.01,0.01-0.02,0.03-0.03,0.04c-0.01,0.01-0.02,0.02-0.03,0.03
			s-0.01,0.01-0.02,0.02c0.02,0.13,0.03,0.27,0.04,0.41c0.05,0.55,0.06,1.13,0,1.69c0.01,0,0.03,0,0.04,0.01c0.01,0,0.01,0,0.01,0
			c0.01,0,0.01,0,0.02,0.01c0.02,0,0.04,0.01,0.06,0.02c0.02,0.01,0.05,0.01,0.07,0.02c0.03,0.01,0.06,0.03,0.1,0.05
			c0.01,0.01,0.02,0.01,0.05,0.01c0.05,0,0.11-0.02,0.18-0.05C35.71,50.29,35.65,49.49,35.57,48.78z M35.57,48.78
			c-0.01,0.03-0.02,0.07-0.03,0.1c-0.01,0.01-0.01,0.02-0.02,0.03c0,0.01,0,0.01-0.01,0.01c-0.01,0.03-0.03,0.06-0.05,0.08
			c-0.02,0.03-0.04,0.06-0.06,0.09c-0.01,0.02-0.03,0.03-0.04,0.04c0-0.04,0-0.08,0-0.12c0-0.08,0-0.16,0-0.24
			c0-0.11-0.01-0.22-0.01-0.33v-0.03h-0.01c-0.03,0.03-0.06,0.06-0.08,0.1c-0.03,0.05-0.05,0.1-0.06,0.15
			c-0.01,0.03-0.02,0.07-0.04,0.1c-0.01,0.01-0.02,0.03-0.02,0.04c-0.01,0.01-0.02,0.03-0.03,0.04c-0.01,0.01-0.02,0.02-0.03,0.03
			s-0.01,0.01-0.02,0.02c0.02,0.13,0.03,0.27,0.04,0.41c0.05,0.55,0.06,1.13,0,1.69c0.01,0,0.03,0,0.04,0.01c0.01,0,0.01,0,0.01,0
			c0.01,0,0.01,0,0.02,0.01c0.02,0,0.04,0.01,0.06,0.02c0.02,0.01,0.05,0.01,0.07,0.02c0.03,0.01,0.06,0.03,0.1,0.05
			c0.01,0.01,0.02,0.01,0.05,0.01c0.05,0,0.11-0.02,0.18-0.05C35.71,50.29,35.65,49.49,35.57,48.78z M35.57,48.78
			c-0.01,0.03-0.02,0.07-0.03,0.1c-0.01,0.01-0.01,0.02-0.02,0.03c0,0.01,0,0.01-0.01,0.01c-0.01,0.03-0.03,0.06-0.05,0.08
			c-0.02,0.03-0.04,0.06-0.06,0.09c-0.01,0.02-0.03,0.03-0.04,0.04c0-0.04,0-0.08,0-0.12c0-0.08,0-0.16,0-0.24
			c0-0.11-0.01-0.22-0.01-0.33v-0.03h-0.01c-0.03,0.03-0.06,0.06-0.08,0.1c-0.03,0.05-0.05,0.1-0.06,0.15
			c-0.01,0.03-0.02,0.07-0.04,0.1c-0.01,0.01-0.02,0.03-0.02,0.04c-0.01,0.01-0.02,0.03-0.03,0.04c-0.01,0.01-0.02,0.02-0.03,0.03
			s-0.01,0.01-0.02,0.02c0.02,0.13,0.03,0.27,0.04,0.41c0.05,0.55,0.06,1.13,0,1.69c0.01,0,0.03,0,0.04,0.01c0.01,0,0.01,0,0.01,0
			c0.01,0,0.01,0,0.02,0.01c0.02,0,0.04,0.01,0.06,0.02c0.02,0.01,0.05,0.01,0.07,0.02c0.03,0.01,0.06,0.03,0.1,0.05
			c0.01,0.01,0.02,0.01,0.05,0.01c0.05,0,0.11-0.02,0.18-0.05C35.71,50.29,35.65,49.49,35.57,48.78z M35.57,48.78
			c-0.01,0.03-0.02,0.07-0.03,0.1c-0.01,0.01-0.01,0.02-0.02,0.03c0,0.01,0,0.01-0.01,0.01c-0.01,0.03-0.03,0.06-0.05,0.08
			c-0.02,0.03-0.04,0.06-0.06,0.09c-0.01,0.02-0.03,0.03-0.04,0.04c0-0.04,0-0.08,0-0.12c0-0.08,0-0.16,0-0.24
			c0-0.11-0.01-0.22-0.01-0.33v-0.03h-0.01c-0.03,0.03-0.06,0.06-0.08,0.1c-0.03,0.05-0.05,0.1-0.06,0.15
			c-0.01,0.03-0.02,0.07-0.04,0.1c-0.01,0.01-0.02,0.03-0.02,0.04c-0.01,0.01-0.02,0.03-0.03,0.04c-0.01,0.01-0.02,0.02-0.03,0.03
			s-0.01,0.01-0.02,0.02c0.02,0.13,0.03,0.27,0.04,0.41c0.05,0.55,0.06,1.13,0,1.69c0.01,0,0.03,0,0.04,0.01c0.01,0,0.01,0,0.01,0
			c0.01,0,0.01,0,0.02,0.01c0.02,0,0.04,0.01,0.06,0.02c0.02,0.01,0.05,0.01,0.07,0.02c0.03,0.01,0.06,0.03,0.1,0.05
			c0.01,0.01,0.02,0.01,0.05,0.01c0.05,0,0.11-0.02,0.18-0.05C35.71,50.29,35.65,49.49,35.57,48.78z M35.57,48.78
			c-0.01,0.03-0.02,0.07-0.03,0.1c-0.01,0.01-0.01,0.02-0.02,0.03c0,0.01,0,0.01-0.01,0.01c-0.01,0.03-0.03,0.06-0.05,0.08
			c-0.02,0.03-0.04,0.06-0.06,0.09c-0.01,0.02-0.03,0.03-0.04,0.04c0-0.04,0-0.08,0-0.12c0-0.08,0-0.16,0-0.24
			c0-0.11-0.01-0.22-0.01-0.33v-0.03h-0.01c-0.03,0.03-0.06,0.06-0.08,0.1c-0.03,0.05-0.05,0.1-0.06,0.15
			c-0.01,0.03-0.02,0.07-0.04,0.1c-0.01,0.01-0.02,0.03-0.02,0.04c-0.01,0.01-0.02,0.03-0.03,0.04c-0.01,0.01-0.02,0.02-0.03,0.03
			s-0.01,0.01-0.02,0.02c0.02,0.13,0.03,0.27,0.04,0.41c0.05,0.55,0.06,1.13,0,1.69c0.01,0,0.03,0,0.04,0.01c0.01,0,0.01,0,0.01,0
			c0.01,0,0.01,0,0.02,0.01c0.02,0,0.04,0.01,0.06,0.02c0.02,0.01,0.05,0.01,0.07,0.02c0.03,0.01,0.06,0.03,0.1,0.05
			c0.01,0.01,0.02,0.01,0.05,0.01c0.05,0,0.11-0.02,0.18-0.05C35.71,50.29,35.65,49.49,35.57,48.78z"/>
		<path class="st0" d="M37.48,29.26c-0.05,0.45-0.28,0.87-0.61,1.2l0,0c-0.13,0.13-0.27,0.24-0.42,0.33
			c-0.37,0.23-0.8,0.37-1.24,0.37c-0.64,0-0.89-0.1-1.36-0.55c-0.11-0.1-0.26-0.25-0.51-0.45c-0.52-0.44-0.71-0.88-0.75-1.25
			c-0.02-0.16-0.02-0.3,0-0.42c0.01-0.07,0.03-0.14,0.04-0.2c0.04-0.13,0.09-0.25,0.16-0.37c0.33-0.55,1-0.94,1.95-1.1
			c0.07-0.01,0.14-0.02,0.22-0.03s0.16-0.02,0.24-0.02c0.01,0,0.01,0,0.02,0c0.05,0,0.1-0.01,0.15-0.01c0.14,0,0.27,0.01,0.39,0.03
			c0.59,0.09,0.97,0.39,1.19,0.64C37.56,28.12,37.51,29,37.48,29.26z"/>
		<path class="st0" d="M35.1,27.85c-1.23,0.17-1.98,0.76-1.09,1.51s0.66,0.75,1.19,0.75c0.58,0,1.17-0.5,1.23-0.98
			C36.48,28.65,36.33,27.68,35.1,27.85z"/>
	</g>
	<g class="st2">
		<path d="M16.28,65.76l-0.54,0.66v2.07h-3.15v-9.42h3.15v3.07h0.09l2.29-3.07h3.54l-3.36,4.19l3.58,5.24h-3.71l-1.82-2.73H16.28z"
			/>
		<path d="M25.83,61.55v0.98H31v2.49h-5.17v1H31v2.48h-8.32v-9.42H31v2.48H25.83z"/>
		<path d="M32.22,59.07h3.15l3.74,4.9h0.09v-4.9h3.15v9.42H39.2l-3.73-4.74h-0.11v4.74h-3.15V59.07z"/>
		<path d="M53.8,63.72c0,3.09-2.65,4.78-4.63,4.78h-5.61v-9.42h5.72C51.6,59.07,53.8,60.83,53.8,63.72z M50.63,63.7
			c0-1.52-0.96-2.14-2.41-2.14h-1.51V66h1.61C49.65,66,50.63,65.12,50.63,63.7z"/>
		<path d="M54.55,64.42c0-2.31,1.88-4.2,4.21-4.2c2.31,0,4.2,1.88,4.2,4.2c0,2.33-1.88,4.21-4.2,4.21
			C56.43,68.63,54.55,66.74,54.55,64.42z M60.24,64.4c0-0.82-0.66-1.48-1.48-1.48c-0.83,0-1.49,0.66-1.49,1.48
			c0,0.83,0.66,1.49,1.49,1.49C59.58,65.9,60.24,65.24,60.24,64.4z"/>
		<path d="M63.84,63.78c0-2.73,2.14-4.86,4.99-4.86c2.81,0,4.66,1.8,4.8,4h-3.01c-0.08-0.53-0.78-1.25-1.87-1.25
			c-1.09,0-2,0.78-2,2.06c0,1.28,0.96,2.13,1.96,2.13c0.78,0,1.32-0.27,1.67-0.83h-1.66v-1h4.93c-0.03,2.48-1.96,4.62-4.82,4.62
			S63.84,66.53,63.84,63.78z"/>
	</g>
	<g class="st2">
		<path d="M12.39,75.29c0-2.98,2.42-5.39,5.4-5.39c1.54,0,2.92,0.64,3.91,1.66l-2.44,2.47c-0.36-0.42-0.88-0.67-1.47-0.67
			c-1.06,0-1.93,0.87-1.93,1.93c0,1.08,0.87,1.95,1.93,1.95c0.57,0,1.09-0.25,1.44-0.66l2.47,2.46c-0.99,1.02-2.38,1.66-3.91,1.66
			C14.82,80.69,12.39,78.28,12.39,75.29z"/>
		<path d="M21.92,76c0-2.58,2.1-4.67,4.69-4.67c2.57,0,4.67,2.1,4.67,4.67c0,2.59-2.1,4.68-4.67,4.68
			C24.02,80.69,21.92,78.59,21.92,76z M28.25,75.99c0-0.91-0.73-1.65-1.65-1.65c-0.93,0-1.66,0.73-1.66,1.65
			c0,0.93,0.73,1.66,1.66,1.66C27.52,77.65,28.25,76.92,28.25,75.99z"/>
		<path d="M35.9,72.83v1.08h5.7v2.77h-5.7v3.86h-3.5V70.06h9.21v2.77H35.9z"/>
		<path d="M46.37,72.83v1.08h5.7v2.77h-5.7v3.86h-3.5V70.06h9.21v2.77H46.37z"/>
		<path d="M56.99,72.82v1.09h5.75v2.77h-5.75v1.11h5.75v2.75h-9.25V70.06h9.25v2.75H56.99z"/>
		<path d="M67.74,72.82v1.09h5.75v2.77h-5.75v1.11h5.75v2.75h-9.25V70.06h9.25v2.75H67.74z"/>
	</g>
	<path class="st0" d="M45.65,61.08"/>
	<path class="st3" d="M14.04,54.66V30.69c0-15.91,12.9-28.8,28.8-28.8l0,0c15.91,0,28.8,12.9,28.8,28.8v23.79"/>
</g>
</svg>
